<?xml version="1.0" encoding="UTF-8"?>
<svg width="86px" height="86px" viewBox="0 0 86 86" version="1.1" xmlns="http://www.w3.org/2000/svg" xmlns:xlink="http://www.w3.org/1999/xlink">
    <!-- Generator: Sketch 46.2 (44496) - http://www.bohemiancoding.com/sketch -->
    <title>alarm</title>
    <desc>Created with Sketch.</desc>
    <defs>
        <filter x="-9.0%" y="-6.4%" width="117.9%" height="117.9%" filterUnits="objectBoundingBox" id="filter-1">
            <feOffset dx="0" dy="2" in="SourceAlpha" result="shadowOffsetOuter1"></feOffset>
            <feGaussianBlur stdDeviation="2" in="shadowOffsetOuter1" result="shadowBlurOuter1"></feGaussianBlur>
            <feColorMatrix values="0 0 0 0 0   0 0 0 0 0   0 0 0 0 0  0 0 0 0.5 0" type="matrix" in="shadowBlurOuter1" result="shadowMatrixOuter1"></feColorMatrix>
            <feMerge>
                <feMergeNode in="shadowMatrixOuter1"></feMergeNode>
                <feMergeNode in="SourceGraphic"></feMergeNode>
            </feMerge>
        </filter>
        <linearGradient x1="50%" y1="0%" x2="50%" y2="100%" id="linearGradient-2">
            <stop stop-color="#FFFFFF" offset="0%"></stop>
            <stop stop-color="#ECECEC" offset="100%"></stop>
        </linearGradient>
    </defs>
    <g id="Page-1" stroke="none" stroke-width="1" fill="none" fill-rule="evenodd">
        <g id="demo.lizard.net/management/" transform="translate(-1018.000000, -587.000000)" fill-rule="nonzero">
            <g id="cards" transform="translate(236.000000, 215.000000)">
                <g id="card-alarms" transform="translate(684.000000, 327.000000)">
                    <g id="alarm" filter="url(#filter-1)" transform="translate(102.000000, 47.000000)">
                        <g id="light-bulb">
                            <path d="M38.9178286,77.2245669 C60.0243854,77.2245669 77.1346297,60.09411 77.1346297,38.9626205 C77.1346297,17.8311311 60.0243854,0.700674202 38.9178286,0.700674202 C17.8112721,0.700674202 0.701027383,17.8311311 0.701027383,38.9626205 C0.701027383,60.09411 17.8112721,77.2245669 38.9178286,77.2245669 Z" id="Mask" fill="url(#linearGradient-2)"></path>
                            <g id="Group-2" transform="translate(10.000000, 11.000000)">
                                <path d="M14.3451398,48 L43.654747,48 C49.3367097,43.6109156 53,36.7350798 53,29.0000053 C53,15.7450723 42.2548168,5 29,5 C15.7451832,5 5,15.7450723 5,29.0000053 C5,36.7350798 8.66329025,43.6108023 14.3451398,48 Z" id="Shape" fill="#FFEBEB"></path>
                                <path d="M51.8637695,15.7317213 C51.5833305,15.2494352 50.9622927,15.0842562 50.4766432,15.3626388 L45.1782099,18.400516 C43.7061929,16.1556351 41.7734875,14.2363144 39.5129514,12.7744916 L42.5720139,7.51275206 C42.8524529,7.03046592 42.6860069,6.41372909 42.2003575,6.13534649 C41.714708,5.85684966 41.0936702,6.0221429 40.8133463,6.50442904 L37.7555491,11.763884 C35.1278428,10.4325138 32.1522908,9.68144047 28.9999404,9.68144047 C25.84759,9.68144047 22.8720381,10.4325138 20.2443317,11.763884 L17.1865346,6.50431481 C16.9060956,6.02202866 16.2850578,5.85684966 15.7995234,6.13523226 C15.3138739,6.41372909 15.147543,7.03046592 15.427867,7.51263783 L18.4869295,12.7743774 C16.2263934,14.2362002 14.293573,16.1555208 12.8216709,18.4004018 L7.52323762,15.3625245 C7.03758816,15.0840277 6.4165504,15.2493209 6.13622644,15.7316071 C5.85578746,16.2138932 6.0222334,16.8306301 6.50788286,17.1090127 L11.8040156,20.1456334 C10.4633608,22.7551418 9.70704979,25.7100869 9.70704979,28.840606 C9.70704979,39.4220006 18.3448695,48 29.0000555,48 C39.6552414,48 48.2930611,39.4220006 48.2930611,28.840606 C48.2930611,25.7100869 47.5367501,22.7551418 46.1960953,20.1456334 L51.4922281,17.1090127 C51.9777625,16.8307443 52.1442084,16.2140075 51.8637695,15.7317213 Z" id="Shape" fill="#FFCECE"></path>
                                <path d="M45,48 L13,48 L13,44 C13,42.8953837 13.8953774,42 14.9999858,42 L43.0000142,42 C44.1046226,42 45,42.8953837 45,44 L45,48 Z" id="Shape" fill="#C7CFE2"></path>
                                <path d="M43,42 L15,42 L15,29.0000252 C15,21.2679866 21.2679753,15 29,15 L29,15 C36.7320247,15 43,21.2679866 43,29.0000252 L43,42 Z" id="Shape" fill="#FF6464"></path>
                                <g id="Group" transform="translate(11.000000, 42.000000)" fill="#AFB9D2">
                                    <path d="M34.9889434,8.90033333 L1.0110566,8.90033333 C0.459169811,8.90033333 0.0116603774,8.46111111 0.0116603774,7.91944444 L0.0116603774,6.93855556 C0.0116603774,6.39688889 0.459169811,5.95766667 1.0110566,5.95766667 L34.9889434,5.95766667 C35.5408302,5.95766667 35.9883396,6.39688889 35.9883396,6.93855556 L35.9883396,7.91944444 C35.9883396,8.46122222 35.5408302,8.90033333 34.9889434,8.90033333 Z" id="Shape"></path>
                                    <path d="M14.0026415,0.0727777778 L4.00913208,0.0727777778 C2.90535849,0.0727777778 2.01045283,0.951 2.01045283,2.03444444 L2.01045283,5.95777778 L12.0039623,5.95777778 L12.0039623,2.03444444 C12.0038491,0.951 12.8988679,0.0727777778 14.0026415,0.0727777778 Z" id="Shape"></path>
                                </g>
                                <path d="M21.9999528,50 L21.9999528,49 C21.9999528,48.4477798 22.4477537,48 23,48 L12.0000472,48 C11.4478009,48 11,48.4477798 11,49 L11,50 C11,50.5522202 11.4478009,51 12.0000472,51 L23,51 C22.4476404,50.9998867 21.9999528,50.5522202 21.9999528,50 Z" id="Shape" fill="#959CB3"></path>
                                <path d="M32,15.4013552 C30.9640223,15.1485116 29.8881392,15 28.7758063,15 C21.167601,15 15,21.2679603 15,28.9999664 L15,42 L24.8398935,42 L24.8398935,28.9999664 C24.8398935,22.3982798 27.8946568,16.8785416 32,15.4013552 Z" id="Shape" fill="#D2555A"></path>
                                <path d="M33,28.99996 C33,26.7908629 31.2091192,25 29,25 C26.7908808,25 25,26.7908629 25,28.99996 C25,30.7367877 26.1135656,32.2004944 27.6605494,32.7530802 L27,42 L31,42 L30.3394506,32.7530802 C31.8865477,32.2002679 33,30.7366745 33,28.99996 Z" id="Shape" fill="#FF937C"></path>
                                <g id="Group" fill="#FFB1B1">
                                    <path d="M58,28.9733459 L58,28.9733459 C58,28.4235338 57.5521992,27.9777068 56.9999531,27.9777068 L46.0000039,27.9777068 C45.4477578,27.9777068 44.999957,28.4235338 44.999957,28.9733459 L44.999957,28.9733459 C44.999957,29.5231579 45.4477578,29.968985 46.0000039,29.968985 L56.9999531,29.968985 C57.5521992,29.9688722 58,29.5231579 58,28.9733459 Z" id="Shape"></path>
                                    <path d="M0,28.9733459 L0,28.9733459 C0,29.5231579 0.447800781,29.968985 1.00004688,29.968985 L11.9999961,29.968985 C12.5522422,29.968985 13.000043,29.5231579 13.000043,28.9733459 L13.000043,28.9733459 C13.000043,28.4235338 12.5522422,27.9777068 11.9999961,27.9777068 L1.00004688,27.9777068 C0.447800781,27.9777068 0,28.4235338 0,28.9733459 Z" id="Shape"></path>
                                    <path d="M29,0.101165414 L29,0.101165414 C28.4477539,0.101165414 27.9999531,0.546992481 27.9999531,1.09680451 L27.9999531,12.0482707 C27.9999531,12.5980827 28.4477539,13.0439098 29,13.0439098 L29,13.0439098 C29.5522461,13.0439098 30.0000469,12.5980827 30.0000469,12.0482707 L30.0000469,1.09669173 C30.0000469,0.546879699 29.5522461,0.101165414 29,0.101165414 Z" id="Shape"></path>
                                </g>
                            </g>
                        </g>
                    </g>
                </g>
            </g>
        </g>
    </g>
</svg>