<?xml version="1.0" encoding="UTF-8"?>
<svg width="86px" height="86px" viewBox="0 0 86 86" version="1.1" xmlns="http://www.w3.org/2000/svg" xmlns:xlink="http://www.w3.org/1999/xlink">
    <!-- Generator: Sketch 46.2 (44496) - http://www.bohemiancoding.com/sketch -->
    <title>lizard@3x</title>
    <desc>Created with Sketch.</desc>
    <defs>
        <filter x="-10.5%" y="-7.9%" width="121.1%" height="121.1%" filterUnits="objectBoundingBox" id="filter-1">
            <feOffset dx="0" dy="2" in="SourceAlpha" result="shadowOffsetOuter1"></feOffset>
            <feGaussianBlur stdDeviation="2" in="shadowOffsetOuter1" result="shadowBlurOuter1"></feGaussianBlur>
            <feColorMatrix values="0 0 0 0 0   0 0 0 0 0   0 0 0 0 0  0 0 0 0.5 0" type="matrix" in="shadowBlurOuter1" result="shadowMatrixOuter1"></feColorMatrix>
            <feMerge>
                <feMergeNode in="shadowMatrixOuter1"></feMergeNode>
                <feMergeNode in="SourceGraphic"></feMergeNode>
            </feMerge>
        </filter>
        <linearGradient x1="50%" y1="0%" x2="50%" y2="100%" id="linearGradient-2">
            <stop stop-color="#FFFFFF" offset="0%"></stop>
            <stop stop-color="#ECECEC" offset="100%"></stop>
        </linearGradient>
        <path d="M35.628672,71.1599771 C55.2042079,71.1599771 71.0733147,55.272124 71.0733147,35.6734639 C71.0733147,16.0748039 55.2042079,0.186950721 35.628672,0.186950721 C16.0531363,0.186950721 0.184029175,16.0748039 0.184029175,35.6734639 C0.184029175,55.272124 16.0531363,71.1599771 35.628672,71.1599771 Z" id="path-3"></path>
    </defs>
    <g id="Page-1" stroke="none" stroke-width="1" fill="none" fill-rule="evenodd">
        <g id="demo.lizard.net/management/" transform="translate(-338.000000, -258.000000)">
            <g id="cards" transform="translate(236.000000, 215.000000)">
                <g id="card-lizard-users">
                    <g id="lizard@3x" filter="url(#filter-1)" transform="translate(107.000000, 46.000000)">
                        <path d="M37.9086649,75.9068918 C58.8450424,75.9068918 75.8173299,58.9145554 75.8173299,37.953446 C75.8173299,16.9923366 58.8450424,0 37.9086649,0 C16.9722874,0 0,16.9923366 0,37.953446 C0,58.9145554 16.9722874,75.9068918 37.9086649,75.9068918 Z M37.9086649,72.7965606 C57.1292806,72.7965606 72.7106683,57.1967667 72.7106683,37.953446 C72.7106683,18.710125 57.1292806,3.11033118 37.9086649,3.11033118 C18.6880491,3.11033118 3.10666132,18.710125 3.10666132,37.953446 C3.10666132,57.1967667 18.6880491,72.7965606 37.9086649,72.7965606 Z" id="Mask" stroke="#FFFFFF" fill="#FFFFFF" fill-rule="nonzero"></path>
                        <g id="LogoLizard_def_rgb" transform="translate(2.289157, 2.289157)">
                            <g id="Mask" fill-rule="nonzero" fill="url(#linearGradient-2)">
                                <path d="M35.628672,71.1599771 C55.2042079,71.1599771 71.0733147,55.272124 71.0733147,35.6734639 C71.0733147,16.0748039 55.2042079,0.186950721 35.628672,0.186950721 C16.0531363,0.186950721 0.184029175,16.0748039 0.184029175,35.6734639 C0.184029175,55.272124 16.0531363,71.1599771 35.628672,71.1599771 Z" id="path-2"></path>
                            </g>
                            <g id="Clipped">
                                <mask id="mask-4" fill="white">
                                    <use xlink:href="#path-3"></use>
                                </mask>
                                <g id="path-2"></g>
                                <g id="Group" mask="url(#mask-4)">
                                    <g transform="translate(-1.373494, 10.530120)">
                                        <path d="M34.4410003,24.1817831 L39.3300958,24.1817831 L71.1113728,24.1817831 C72.4567582,24.1817831 73.5563519,25.2886747 73.5563519,26.6410602 L73.5563519,46.3118073 C73.5563519,47.6650601 72.4567582,48.7710844 71.1113728,48.7710844 L2.65972317,48.7710844 C1.31520034,48.7710844 0.215606613,47.6650601 0.215606613,46.3118073 L0.215606613,26.6410602 C0.215606613,25.2886747 1.31520034,24.1817831 2.65972317,24.1817831 L34.4410003,24.1817831" id="Fill-4" stroke="none" fill="#D9D9D6" fill-rule="evenodd"></path>
                                        <path d="M73.5563519,21.7659759 L69.8937013,40.0244819 L2.96259456,40.0244819 L0.215606613,21.7659759 C0.215606613,21.7659759 13.1045699,18.8686265 36.8859793,18.8686265 C60.6665261,18.8686265 73.5563519,21.7659759 73.5563519,21.7659759 Z" id="Fill-7" stroke="none" fill="#D9D9D6" fill-rule="evenodd"></path>
                                        <path d="M36.8859793,18.8686265 C60.6665261,18.8686265 73.5563519,21.7659759 73.5563519,21.7659759 L73.5563519,40.0244819 L0.215606613,40.0244819 L0.215606613,21.7659759 C0.215606613,21.7659759 13.1045699,18.8686265 36.8859793,18.8686265 L36.8859793,18.8686265 Z" id="Stroke-8" stroke="#D9D9D6" stroke-width="0.5" fill="none"></path>
                                        <path d="M51.5018931,19.4469397 C51.6769655,19.9344578 51.5476016,20.4766265 51.168134,21.2373976 C50.5066529,22.5698313 49.1811035,23.8398072 48.2220852,24.3706988 C47.912474,24.5415904 47.1207664,24.9484337 45.9935752,24.6109879 C45.2372272,24.3845783 44.5084769,24.5155663 44.1255595,24.9007229 C43.7417798,25.2858795 43.5028876,25.5279036 43.1441182,25.7447711 C42.783624,25.9616385 41.9211975,26.2019277 41.4899843,26.6356626 C41.0587711,27.0693976 41.0587711,27.4797109 41.5503541,27.7078554 C42.1833752,28.0027952 42.6370115,28.3280964 42.2325335,28.8633253 C41.9694934,29.2146506 41.5503541,29.117494 41.2269443,28.827759 C40.9035343,28.5380241 40.4723211,28.1771566 40.5076806,28.4668916 C40.5447649,28.7548915 40.8310905,29.3282892 40.6758537,29.7195181 C40.5318285,30.0821205 40.221355,30.3458313 39.9333046,30.1289639 C39.6055825,29.8817349 39.8850087,28.9006265 39.5978207,29.0446265 C39.3097703,29.189494 38.4473438,29.865253 38.2438112,29.6596627 C37.9359249,29.3482409 38.1308333,28.7470843 38.5672211,28.4668916 C39.4296475,27.9134458 38.6629504,27.8882891 38.2317372,27.9602892 C37.8005239,28.0331566 37.6271762,27.2116627 38.1360079,27.0459759 C39.0941636,26.7319518 39.6452541,26.8525301 39.4779434,25.7916145 C39.4046372,25.329253 38.8164623,24.912 38.0282046,25.0681446 C36.4594508,25.3821687 34.1714335,24.1295422 33.3452289,23.1172048 C32.1999266,21.714506 31.9558599,20.5026506 31.4522029,20.5390843 C30.9494083,20.5755181 30.6501463,21.1653976 30.1827111,21.2373976 C29.715276,21.3102651 28.9011454,21.009253 28.4337103,20.3942169 C27.9671376,19.7800482 27.9067677,19.1173012 27.4039731,19.2621687 C26.9011785,19.4061687 26.8528826,20.261494 26.3854475,20.261494 C25.9188748,20.261494 25.5592429,19.971759 25.8464309,19.4660241 C26.1344814,18.9602892 27.1521446,18.430265 26.1819148,18.3946988 C25.2116851,18.3582651 25.0736969,18.245494 25.1642516,17.7675181 C25.223759,17.4543614 25.7265537,17.1897831 26.1577669,17.2617831 C26.5889801,17.3337831 26.9606859,17.2253494 26.6734979,16.9356145 C26.3854475,16.646747 25.223759,15.9848675 26.038752,15.696 C26.6829846,15.466988 27.2125144,16.3214458 27.3556772,15.9597108 C27.4997024,15.5988434 27.2840958,14.7556627 27.9309157,14.7799518 C28.3241821,14.7946988 28.8528495,15.3342651 28.7450463,15.9848675 C28.6372429,16.6354699 28.6260314,17.6955181 29.416014,17.4066506 C30.206859,17.1169157 30.6259983,16.6103133 30.6259983,15.5624096 C30.6259983,14.514506 30.2542925,13.6236145 30.3025884,12.2729638 C30.3206994,11.7923855 30.3267363,10.2135904 31.4763508,9.16568676 C32.6259652,8.11691565 33.5004657,6.59884339 33.6444909,5.84067472 C33.7885161,5.08163854 33.7885161,3.99730121 32.6380392,3.02139759 C31.4884248,2.04549397 30.218933,1.34631325 29.0089487,1.26216868 C27.9240162,1.18583132 26.7631903,1.19971084 25.5833909,1.83990361 C24.5726271,2.38901205 23.7386607,3.16626506 22.7080611,4.46746988 C21.1194716,6.47479519 21.8102752,8.54197591 21.8137248,8.94881929 C21.8137248,8.94881929 21.8094127,9.17262652 21.7628417,8.97310844 C21.6170916,8.34939759 21.3204169,6.96838556 21.5110132,6.12954216 C21.623991,5.63508433 22.0310563,4.24453012 23.6187834,2.73166265 C25.2125475,1.21445783 26.9374004,0.852722893 28.4828686,0.816289157 C29.715276,0.787662649 31.8713421,1.55103614 32.9976711,2.62322892 C34.7311482,4.27315662 35.1175153,6.09310844 33.608269,7.9720482 C32.0990227,9.85185541 31.7040314,11.0689157 31.7756128,13.2133012 C31.8463317,15.3091084 34.0886405,18.3218313 35.7772715,19.7800482 C37.3391258,21.1280964 39.1139994,22.2124337 41.9332715,22.478747 C44.7361574,22.7441928 46.4739469,21.9608675 47.9461086,21.3813976 C49.10176,20.9294458 50.7947035,19.8381687 51.4717083,19.3888193 L51.5018931,19.4469397" id="Fill-10" stroke="none" fill="#7FA9AE" fill-rule="evenodd"></path>
                                        <path d="M21.7800902,9.05118072 C21.6438268,8.48298796 21.3100678,7.01262649 21.5110132,6.12954216 C21.623991,5.63508433 22.0310563,4.24453012 23.6187834,2.73166265 C25.2125475,1.21445783 26.9374004,0.852722893 28.4828686,0.816289157 C29.715276,0.787662649 31.8713421,1.55103614 32.9976711,2.62322892 C34.7311482,4.27315662 35.1175153,6.09310844 33.608269,7.9720482 C32.0990227,9.85185541 31.7040314,11.0689157 31.7756128,13.2133012 C31.8463317,15.3091084 34.0886405,18.3218313 35.7772715,19.7800482 C37.3391258,21.1280964 39.1139994,22.2124337 41.9332715,22.478747 C44.7361574,22.7441928 46.4739469,21.9608675 47.9461086,21.3813976 C49.4199953,20.8036626 51.4717083,19.3888193 51.4717083,19.3888193 C51.4717083,19.3888193 51.1871075,18.9056385 50.9766754,18.7078554 C50.2099782,17.9843855 48.1030705,18.1049638 47.0836821,18.0563856 C46.2195309,18.0156144 45.0957893,18.1899759 44.4843289,18.5152771 C43.873731,18.8405783 43.1492928,19.3714699 42.4972984,18.9247229 C41.9694934,18.562988 42.209248,17.6478072 42.783624,17.5029398 C43.4037086,17.3467952 44.6749252,17.8872289 44.8439608,17.5029398 C44.9396901,17.2860723 44.7240835,17.1169157 44.2221513,16.9729157 C43.7573035,16.8393253 43.9341009,16.1774458 44.7120095,16.141012 C45.4804315,16.1054458 46.207457,15.8998554 46.0780931,15.3819759 C45.9935752,15.0453976 45.1311488,15.3819759 44.5809207,15.5511325 C43.7892132,15.7931566 44.1212474,15.0740241 44.3885996,14.5500723 C44.6042062,14.1293494 44.172993,13.9124819 43.8142236,13.9610602 C43.2174245,14.0408675 43.3071169,14.7990361 42.9871566,15.0566747 C42.3774211,15.5511325 41.9694934,14.442506 41.5857137,14.5873735 C40.9578672,14.8250602 41.681443,15.4062651 41.9091235,15.7428434 C42.1902746,16.1600964 41.2623037,16.502747 40.5076806,16.8280482 C39.7530574,17.1533494 39.7780678,18.202988 39.8255013,18.706988 C39.8608607,19.0930121 39.1907554,18.9967229 38.3516145,18.3704096 C37.3882841,17.6495422 38.1377327,17.0431807 38.6155169,16.9243374 C39.6814761,16.6597591 39.8487868,16.0568674 40.1006153,15.6231325 C40.3524438,15.1893976 39.9160561,14.1067952 40.2446405,13.5993253 C40.6034099,13.045012 41.0587711,13.2740241 41.5624281,13.3104578 C42.0660852,13.3460241 42.6163133,13.405012 42.7361905,13.032 C42.8793533,12.586988 42.4688383,12.6815422 41.681443,12.586988 C41.0837814,12.5149879 41.2752401,11.8158072 41.6935169,11.4783614 C42.1937243,11.0767229 42.3532732,10.4183133 41.9936414,10.2257349 C41.5305183,9.97763857 40.9759781,11.0081928 40.4723211,11.4783614 C39.968664,11.9476626 39.7815175,11.2571566 39.8608607,10.7548916 C39.9816005,10.0088675 39.6694021,9.71999999 39.2864847,9.67142171 C38.3516145,9.55431326 38.603443,10.6351807 38.6396649,10.9969156 C38.6750244,11.3586506 38.591369,11.6353735 38.0885744,11.4549398 C37.5849173,11.2736386 37.066599,11.0324819 36.9631079,11.5026506 C36.8665161,11.937253 37.841058,12.2191807 38.4473438,12.7075663 C39.0475926,13.1898795 38.6431146,14.7660723 37.9204012,14.9248193 C37.1537041,15.0931084 36.914812,14.3531566 35.5487285,14.3219277 C34.4948434,14.2976385 33.9679008,13.6713253 33.8480235,13.045012 C33.6272423,11.8895422 35.3572698,10.7314699 36.0523855,9.79200001 C36.7431891,8.85773494 37.7168686,6.71421689 35.9799417,4.15344578 C34.5431393,2.0333494 32.9260896,1.02101205 31.0934335,0.442409638 C29.2607773,-0.135325301 26.6079535,-0.0676626507 24.9124231,0.816289157 C22.9719636,1.8286265 21.9422264,3.52713253 21.4385693,5.2620723 C20.9926949,6.80096384 21.7800902,9.05118072 21.7800902,9.05118072" id="Fill-11" stroke="none" fill="#115E67" fill-rule="evenodd"></path>
                                        <path d="M18.1394688,36.2657349 L17.4943738,36.2657349 C17.2796296,36.2657349 17.2287464,36.2275663 17.2287464,35.9976867 L17.2287464,35.3115181 C17.2287464,35.082506 17.2796296,35.0434699 17.4943738,35.0434699 L20.5292525,35.0434699 C20.7439966,35.0434699 20.7948798,35.082506 20.7948798,35.3115181 L20.7948798,35.9976867 C20.7948798,36.2275663 20.7439966,36.2657349 20.5292525,36.2657349 L19.8462107,36.2657349 L19.8462107,42.3831325 L21.6926657,42.3831325 L21.9203463,41.4046265 C21.9582931,41.2389398 21.9712295,41.1756144 22.0721333,41.1756144 C22.1350905,41.1756144 22.19891,41.2007711 22.2618672,41.2137831 L23.096696,41.3916145 C23.2734934,41.4297831 23.3235141,41.4549398 23.3235141,41.5564337 C23.3235141,41.6076145 23.3114402,41.6718072 23.2985038,41.722988 L22.8940258,43.5290603 C22.856079,43.7190361 22.8051958,43.7572048 22.615462,43.7572048 L17.4943738,43.7572048 C17.2796296,43.7572048 17.2287464,43.7190361 17.2287464,43.4900241 L17.2287464,42.8038554 C17.2287464,42.5748434 17.2796296,42.5358072 17.4943738,42.5358072 L18.1394688,42.5358072 L18.1394688,36.2657349" id="Fill-12" stroke="none" fill="#115E67" fill-rule="evenodd"></path>
                                        <path d="M27.6252973,43.4900241 C27.6252973,43.7190361 27.5744141,43.7572048 27.3596699,43.7572048 L24.3618756,43.7572048 C24.1471314,43.7572048 24.0962483,43.7190361 24.0962483,43.4900241 L24.0962483,42.8038554 C24.0962483,42.5748434 24.1471314,42.5358072 24.3618756,42.5358072 L25.0069706,42.5358072 L25.0069706,36.2657349 L24.3618756,36.2657349 C24.1471314,36.2657349 24.0962483,36.2275663 24.0962483,35.9976867 L24.0962483,35.3115181 C24.0962483,35.082506 24.1471314,35.0434699 24.3618756,35.0434699 L27.3596699,35.0434699 C27.5744141,35.0434699 27.6252973,35.082506 27.6252973,35.3115181 L27.6252973,35.9976867 C27.6252973,36.2275663 27.5744141,36.2657349 27.3596699,36.2657349 L26.7145749,36.2657349 L26.7145749,42.5358072 L27.3596699,42.5358072 C27.5744141,42.5358072 27.6252973,42.5748434 27.6252973,42.8038554 L27.6252973,43.4900241" id="Fill-13" stroke="none" fill="#115E67" fill-rule="evenodd"></path>
                                        <path d="M34.0253639,43.5290603 C33.9736184,43.7450603 33.9615444,43.7572048 33.7459378,43.7572048 L28.9784444,43.7572048 C28.801647,43.7572048 28.7637002,43.7190361 28.7637002,43.5403374 L28.7637002,42.485494 L32.2918868,36.4175421 L30.2565604,36.4175421 L30.2565604,37.4350844 C30.2565604,37.6137832 30.2056772,37.6510843 30.0409537,37.6510843 L29.1052211,37.6510843 C28.9154872,37.6510843 28.8896145,37.6137832 28.8896145,37.4350844 L28.8896145,35.2603373 C28.8896145,35.082506 28.9154872,35.0434699 29.1052211,35.0434699 L33.784747,35.0434699 C34.0124276,35.0434699 34.0503743,35.082506 34.0503743,35.2976386 L34.0503743,36.4435663 L30.5722084,42.3831325 L32.8360779,42.3831325 L33.0637585,41.3664578 C33.0887688,41.2007711 33.151726,41.1756144 33.2155455,41.1756144 C33.2284819,41.1756144 33.3543962,41.2007711 33.3543962,41.2007711 L34.2780549,41.4046265 C34.3910328,41.4297831 34.4548524,41.4679518 34.4548524,41.5564337 C34.4548524,41.6076145 34.4289795,41.6579277 34.4289795,41.7091084 L34.0253639,43.5290603" id="Fill-14" stroke="none" fill="#115E67" fill-rule="evenodd"></path>
                                        <path d="M38.9325705,38.0969639 C38.7937198,37.6007711 38.7178263,36.8504096 38.6548692,36.3160482 L38.6289964,36.3160482 C38.5789756,36.8504096 38.4651353,37.5886265 38.3392211,38.0969639 L37.7820936,40.2847229 L39.4517512,40.2847229 L38.9325705,38.0969639 L38.9325705,38.0969639 Z M42.549587,43.4900241 C42.549587,43.7190361 42.4995663,43.7572048 42.2839597,43.7572048 L39.653559,43.7572048 C39.4388148,43.7572048 39.3879316,43.7190361 39.3879316,43.4900241 L39.3879316,42.8038554 C39.3879316,42.5748434 39.4388148,42.5358072 39.653559,42.5358072 L40.0588994,42.5358072 L39.7673993,41.4297831 L37.5923598,41.4297831 L37.3146585,42.5358072 L37.7312104,42.5358072 C37.9459546,42.5358072 37.9968378,42.5748434 37.9968378,42.8038554 L37.9968378,43.4900241 C37.9968378,43.7190361 37.9459546,43.7572048 37.7312104,43.7572048 L35.2275864,43.7572048 C35.0128423,43.7572048 34.9619591,43.7190361 34.9619591,43.4900241 L34.9619591,42.8038554 C34.9619591,42.5748434 35.0128423,42.5358072 35.2275864,42.5358072 L35.6070541,42.5358072 L37.8200403,35.2473253 C37.8709235,35.069494 37.8829975,35.0434699 38.0977417,35.0434699 L39.4138044,35.0434699 C39.6156122,35.0434699 39.6406226,35.069494 39.6915058,35.2473253 L41.8544713,42.5358072 L42.2839597,42.5358072 C42.4995663,42.5358072 42.549587,42.5748434 42.549587,42.8038554 L42.549587,43.4900241 L42.549587,43.4900241 Z" id="Fill-15" stroke="none" fill="#115E67" fill-rule="evenodd"></path>
                                        <path d="M46.2062753,38.8221687 C47.0281677,38.8221687 47.7232834,38.6946506 47.7232834,37.5244338 C47.7232834,36.4175421 47.0022948,36.380241 46.345126,36.380241 L45.8776907,36.380241 L45.8776907,38.8221687 L46.2062753,38.8221687 L46.2062753,38.8221687 Z M50.3666202,43.4900241 C50.3666202,43.7190361 50.3157373,43.7572048 50.1009929,43.7572048 L48.4822185,43.7572048 C48.2804106,43.7572048 48.2804106,43.7450603 48.1915808,43.5793735 L46.4839766,40.1572048 L45.8776907,40.1572048 L45.8776907,42.5358072 L46.4719027,42.5358072 C46.6866466,42.5358072 46.73753,42.5748434 46.73753,42.8038554 L46.73753,43.4900241 C46.73753,43.7190361 46.6866466,43.7572048 46.4719027,43.7572048 L43.5249913,43.7572048 C43.3102471,43.7572048 43.2602264,43.7190361 43.2602264,43.4900241 L43.2602264,42.8038554 C43.2602264,42.5748434 43.3102471,42.5358072 43.5249913,42.5358072 L44.1700863,42.5358072 L44.1700863,36.2657349 L43.5249913,36.2657349 C43.3102471,36.2657349 43.2602264,36.2275663 43.2602264,35.9976867 L43.2602264,35.3115181 C43.2602264,35.082506 43.3102471,35.0434699 43.5249913,35.0434699 L46.4839766,35.0434699 C47.4585182,35.0434699 49.4308876,35.1085301 49.4308876,37.4992771 C49.4308876,39.1405301 48.4572081,39.6106988 47.9889107,39.8518554 L49.5197174,42.5358072 L50.1009929,42.5358072 C50.3157373,42.5358072 50.3666202,42.5748434 50.3666202,42.8038554 L50.3666202,43.4900241 L50.3666202,43.4900241 Z" id="Fill-16" stroke="none" fill="#115E67" fill-rule="evenodd"></path>
                                        <path d="M53.9465526,42.3831325 C55.3764555,42.3831325 55.9077101,41.7602892 55.9077101,39.330506 C55.9077101,37.0542651 55.363519,36.4175421 53.9465526,36.4175421 L53.4670434,36.4175421 L53.4670434,42.3831325 L53.9465526,42.3831325 L53.9465526,42.3831325 Z M54.0224459,35.0434699 C56.4381027,35.0434699 57.703282,35.833735 57.703282,39.3556626 C57.703282,43.0068434 56.2362948,43.7572048 53.9853616,43.7572048 L51.1143439,43.7572048 C50.8996,43.7572048 50.8487166,43.7068916 50.8487166,43.4900241 L50.8487166,42.8038554 C50.8487166,42.5748434 50.8996,42.5358072 51.1143439,42.5358072 L51.7594392,42.5358072 L51.7594392,36.2657349 L51.1143439,36.2657349 C50.8996,36.2657349 50.8487166,36.2275663 50.8487166,35.9976867 L50.8487166,35.3115181 C50.8487166,35.082506 50.8996,35.0434699 51.1272804,35.0434699 L54.0224459,35.0434699 L54.0224459,35.0434699 Z" id="Fill-17" stroke="none" fill="#115E67" fill-rule="evenodd"></path>
                                        <path d="M80.0047678,32.7307952 C80.1479303,32.6770121 80.5791438,32.1886265 79.8064096,32.1166265 C78.9112111,32.0333494 78.2428305,32.1886265 78.1350273,32.605012 C78.027224,33.0205301 78.4230778,33.0925301 79.0698973,32.8938795 M80.2910932,35.6420241 C80.2910932,35.6420241 80.9258393,35.3045783 80.9749975,35.7131566 C81.0293302,36.1651084 80.2540089,36.84 79.8245205,36.9787952 C79.2673929,37.1600964 78.8361799,36.653494 79.412281,36.1468916" id="Stroke-18" stroke="#EFEFF0" stroke-width="0.1" fill="none" stroke-linecap="round" stroke-linejoin="round"></path>
                                    </g>
                                </g>
                            </g>
                        </g>
                    </g>
                </g>
            </g>
        </g>
    </g>
</svg>