<svg xmlns="http://www.w3.org/2000/svg" xmlns:xlink="http://www.w3.org/1999/xlink" width="229" height="229" viewBox="0 0 229 229"><defs><style>.a{fill:#f2f2f2;}.b{fill:#2c3e50;font-size:16px;font-family:Montserrat-Regular, Montserrat;}.c{fill:#f77;}.d{filter:url(#a);}</style><filter id="a" x="0" y="0" width="229" height="229" filterUnits="userSpaceOnUse"><feOffset dx="3" dy="3" input="SourceAlpha"/><feGaussianBlur stdDeviation="3" result="b"/><feFlood flood-opacity="0.161"/><feComposite operator="in" in2="b"/><feComposite in="SourceGraphic"/></filter></defs><g transform="translate(6 6)"><g class="d" transform="matrix(1, 0, 0, 1, -6, -6)"><rect class="a" width="211" height="211" rx="10" transform="translate(6 6)"/></g><text class="b" transform="translate(42 162)"><tspan x="0" y="0">3Di SCENARIOS</tspan></text><g transform="translate(71 69)"><g transform="translate(0 0)"><path class="c" d="M58.43-76.519h0c0-3.015-2.815-5.456-6.287-5.456s-6.289,2.441-6.289,5.456h0v9.762h.038c.326,2.748,3,4.888,6.254,4.888s5.926-2.14,6.252-4.888h.038Zm0-14.805a6.287,6.287,0,0,0-6.287-6.287,6.289,6.289,0,0,0-6.288,6.287,6.288,6.288,0,0,0,6.288,6.286,6.285,6.285,0,0,0,6.287-6.286m-5.146-17.89A29.438,29.438,0,0,1,82.748-79.753a29.5,29.5,0,0,1-29.5,29.5s-5.033-.012-7.58-.011q-6.532,0-13.1,0c-.358.021-2.6,0-2.4-.018A18.026,18.026,0,0,1,13.459-68.258h.011a5.8,5.8,0,0,1,5.8-5.8,5.8,5.8,0,0,1,5.8,5.8c0,.012,0,.023,0,.035a6.427,6.427,0,0,0,6.424,6.392,6.427,6.427,0,0,0,6.421-6.427,6.42,6.42,0,0,0-5.889-6.391c-.036,0-.071.007-.1.007a5.094,5.094,0,0,1-5.092-5.093,5.092,5.092,0,0,1,5.092-5.09c.016,0,.033,0,.051,0a6.417,6.417,0,0,0,5.942-6.4,6.424,6.424,0,0,0-6.421-6.422,6.419,6.419,0,0,0-6.419,6.357v0a5.8,5.8,0,0,1-5.8,5.8,5.8,5.8,0,0,1-5.8-5.735h-.015A18.031,18.031,0,0,1,30.184-109.2c-.054,0,.091-.017.22-.017.357-.021.722-.037,1.086-.037s.728.015,1.087.037h20.7" transform="translate(-13.459 109.251)"/></g></g></g></svg>