<?xml version="1.0" encoding="UTF-8"?>
<svg width="86px" height="86px" viewBox="0 0 86 86" version="1.1" xmlns="http://www.w3.org/2000/svg" xmlns:xlink="http://www.w3.org/1999/xlink">
    <!-- Generator: Sketch 46.2 (44496) - http://www.bohemiancoding.com/sketch -->
    <title>3di@3x</title>
    <desc>Created with Sketch.</desc>
    <defs>
        <filter x="-10.5%" y="-7.9%" width="121.1%" height="121.1%" filterUnits="objectBoundingBox" id="filter-1">
            <feOffset dx="0" dy="2" in="SourceAlpha" result="shadowOffsetOuter1"></feOffset>
            <feGaussianBlur stdDeviation="2" in="shadowOffsetOuter1" result="shadowBlurOuter1"></feGaussianBlur>
            <feColorMatrix values="0 0 0 0 0   0 0 0 0 0   0 0 0 0 0  0 0 0 0.5 0" type="matrix" in="shadowBlurOuter1" result="shadowMatrixOuter1"></feColorMatrix>
            <feMerge>
                <feMergeNode in="shadowMatrixOuter1"></feMergeNode>
                <feMergeNode in="SourceGraphic"></feMergeNode>
            </feMerge>
        </filter>
    </defs>
    <g id="Page-1" stroke="none" stroke-width="1" fill="none" fill-rule="evenodd">
        <g id="demo.lizard.net/management/" transform="translate(-1019.000000, -258.000000)" fill-rule="nonzero">
            <g id="cards" transform="translate(236.000000, 215.000000)">
                <g id="card-3Di-scenarios" transform="translate(684.000000, 0.000000)">
                    <g id="3di@3x" filter="url(#filter-1)" transform="translate(104.000000, 46.000000)">
                        <path d="M38.0798523,75.6826317 C58.9289688,75.6826317 75.830517,58.7747934 75.830517,37.9179179 C75.830517,17.0610424 58.9289688,0.153204045 38.0798523,0.153204045 C17.2307359,0.153204045 0.329187596,17.0610424 0.329187596,37.9179179 C0.329187596,58.7747934 17.2307359,75.6826317 38.0798523,75.6826317 Z M38.0798523,72.5877674 C57.2203582,72.5877674 72.7368042,57.065547 72.7368042,37.9179179 C72.7368042,18.7702887 57.2203582,3.2480684 38.0798523,3.2480684 C18.9393464,3.2480684 3.42290061,18.7702887 3.42290061,37.9179179 C3.42290061,57.065547 18.9393464,72.5877674 38.0798523,72.5877674 Z" id="Mask" stroke="#FFFFFF" fill="#FFFFFF"></path>
                        <path d="M41.9360654,19.9752422 C51.3237812,19.9752422 58.9167332,27.5660161 58.9167332,36.9591879 C58.9167332,46.3524576 51.3036749,53.9662892 41.9159591,53.9662892 C41.9159591,53.9662892 39.0147562,53.9602058 37.5476773,53.9602058 L29.9999401,53.9602058 C29.7938743,53.972274 28.5036334,53.9602058 28.6166214,53.9481376 C23.2348803,53.5581248 18.9872368,49.0745987 18.9872368,43.5858702 L18.9937101,43.5858702 C18.9937101,41.7401048 20.4905071,40.2423583 22.3364686,40.2423583 C24.1819396,40.2423583 25.6787367,41.7402029 25.6787367,43.5858702 C25.6787367,43.5919536 25.6757943,43.5979384 25.6757943,43.6059842 C25.6872696,45.6406233 27.3388368,47.2892729 29.3772309,47.2892729 C31.4197444,47.2892729 33.0787656,45.6306156 33.0787656,43.5858702 C33.0787656,41.6457169 31.582459,40.0593712 29.6848094,39.9005208 C29.6631338,39.9025812 29.6436159,39.9045436 29.6239999,39.9045436 C28.004603,39.9045436 26.6907249,38.5896859 26.6907249,36.9691958 C26.6907249,35.3491962 28.004603,34.0343386 29.6239999,34.0343386 C29.6344944,34.0343386 29.6436159,34.036399 29.6542085,34.036399 C31.5680412,33.8946208 33.0788637,32.299739 33.0788637,30.3489891 C33.0788637,28.3048324 31.4197444,26.6476467 29.377329,26.6476467 C27.3449177,26.6476467 25.6984508,28.284228 25.6788348,30.3122936 C25.6788348,32.1590402 24.1820377,33.6559037 22.3365667,33.6559037 C20.5031595,33.6559037 19.0163665,32.1786634 18.9957697,30.3489891 L18.9872368,30.3489891 C18.9872368,24.8637928 23.2384112,20.3712399 28.6251544,19.9841708 C28.5930823,19.9821103 28.677431,19.9751441 28.7517755,19.9751441 C28.9582337,19.9625852 29.16734,19.9545396 29.377329,19.9545396 C29.5874161,19.9545396 29.7969147,19.9625852 30.0039614,19.9751441 L39.8579489,19.9751441 L41.9360654,19.9751441 L41.9360654,19.9752422 Z M44.9005297,30.2887457 C44.9005297,28.2872696 43.278583,26.6642284 41.2778514,26.6642284 C39.2775122,26.6642284 37.6537017,28.2872696 37.6537017,30.2887457 C37.6537017,32.2897312 39.2776103,33.9121836 41.2778514,33.9121836 C43.2784848,33.9121836 44.9005297,32.2897312 44.9005297,30.2887457 L44.9005297,30.2887457 Z M44.9024916,38.8230067 L44.900432,38.8230067 C44.900432,37.0858562 43.2784848,35.6785729 41.2777533,35.6785729 C39.2754525,35.6785729 37.6536036,37.0858562 37.6536036,38.8230067 L37.6515439,38.8230067 L37.6515439,44.4504718 L37.6741023,44.4504718 C37.861533,46.0346589 39.4030544,47.2692572 41.2776552,47.2692572 C43.1516677,47.2692572 44.6913256,46.0347571 44.8801293,44.4504718 L44.9022952,44.4504718 L44.9022952,38.8230067 L44.9024916,38.8230067 Z" id="Shape" fill="#ED1848"></path>
                    </g>
                </g>
            </g>
        </g>
    </g>
</svg>