<svg xmlns="http://www.w3.org/2000/svg" width="172" height="163.153" viewBox="0 0 172 163.153"><defs><style>.a{fill:#86eab8;}.b{opacity:0.03;}.c{opacity:0.04;}.d{opacity:0.02;}.e{opacity:0.52;}.f{fill:teal;}.g{fill:#3f5176;}</style></defs><g transform="translate(-1 -2.286)"><g transform="translate(4.44 5.726)"><g transform="translate(20.009)"><g transform="translate(0 0)"><path class="a" d="M114.442,10.1V132.735a6.833,6.833,0,0,1-6.813,6.813h-93a6.833,6.833,0,0,1-6.813-6.813V10.1A6.833,6.833,0,0,1,14.63,3.286h93a6.813,6.813,0,0,1,6.813,6.813Z" transform="translate(-7.817 -3.286)"/></g><g class="b"><path class="a" d="M114.442,10.1V132.735a6.833,6.833,0,0,1-6.813,6.813h-93a6.833,6.833,0,0,1-6.813-6.813v-3.679c53.244-1.874,96.235-46.022,96.235-99.71V3.286h3.577a6.813,6.813,0,0,1,6.813,6.813Z" transform="translate(-7.817 -3.286)"/></g><g transform="translate(12.957 18.825)"><g transform="translate(0 67.488)"><g transform="translate(0 0.016)"><path class="a" d="M92.282,29.557v6.232A1.225,1.225,0,0,1,91.072,37H12.793a1.225,1.225,0,0,1-1.21-1.21V29.557a1.2,1.2,0,0,1,1.21-1.175H91.072A1.2,1.2,0,0,1,92.282,29.557Z" transform="translate(-11.583 -28.382)"/></g><g class="c" transform="translate(0.009)"><path class="a" d="M92.287,29.569V35.8A1.237,1.237,0,0,1,91.061,37H12.778A1.207,1.207,0,0,1,11.586,35.8V33.725H81.557a7.439,7.439,0,0,0,7.12-5.348h2.385A1.237,1.237,0,0,1,92.287,29.569Z" transform="translate(-11.586 -28.377)"/></g></g><g transform="translate(0 44.998)"><g transform="translate(0 0.005)"><path class="a" d="M92.282,23.016v6.232a1.225,1.225,0,0,1-1.21,1.21H12.793a1.225,1.225,0,0,1-1.21-1.21V23.016a1.2,1.2,0,0,1,1.21-1.175H91.072A1.2,1.2,0,0,1,92.282,23.016Z" transform="translate(-11.583 -21.841)"/></g><g class="c" transform="translate(0.009)"><path class="a" d="M92.287,23.031v6.234a1.237,1.237,0,0,1-1.226,1.192H12.778a1.207,1.207,0,0,1-1.192-1.192V27.153H81.557a7.44,7.44,0,0,0,7.12-5.314h2.385A1.214,1.214,0,0,1,92.287,23.031Z" transform="translate(-11.586 -21.839)"/></g></g><g transform="translate(0 22.5)"><path class="a" d="M92.282,16.475v6.232a1.225,1.225,0,0,1-1.21,1.21H12.793a1.225,1.225,0,0,1-1.21-1.21V16.475a1.2,1.2,0,0,1,1.21-1.175H91.072A1.2,1.2,0,0,1,92.282,16.475Z" transform="translate(-11.583 -15.299)"/><g class="c" transform="translate(0.009 0.006)"><path class="a" d="M92.287,16.459v6.234a1.243,1.243,0,0,1-1.226,1.227H12.778a1.215,1.215,0,0,1-1.192-1.227V20.615H81.557a7.44,7.44,0,0,0,7.12-5.314h2.385a1.208,1.208,0,0,1,1.226,1.158Z" transform="translate(-11.586 -15.301)"/></g></g><g transform="translate(0 89.988)"><path class="a" d="M92.282,36.093v6.232a1.225,1.225,0,0,1-1.21,1.21H12.793a1.225,1.225,0,0,1-1.21-1.21V36.093a1.2,1.2,0,0,1,1.21-1.175H91.072A1.2,1.2,0,0,1,92.282,36.093Z" transform="translate(-11.583 -34.918)"/><g class="c" transform="translate(0.009 0.006)"><path class="a" d="M92.287,36.078v6.234a1.243,1.243,0,0,1-1.226,1.226H12.778a1.214,1.214,0,0,1-1.192-1.226V40.234H81.557a7.44,7.44,0,0,0,7.12-5.314h2.385A1.208,1.208,0,0,1,92.287,36.078Z" transform="translate(-11.586 -34.919)"/></g></g><g transform="translate(17.86 0)"><g transform="translate(0 0.016)"><path class="a" d="M61.766,9.973V16.2a1.2,1.2,0,0,1-1.21,1.175H17.95A1.166,1.166,0,0,1,16.775,16.2V9.973a1.2,1.2,0,0,1,1.175-1.21H60.556a1.225,1.225,0,0,1,1.21,1.21Z" transform="translate(-16.775 -8.763)"/></g><g class="c" transform="translate(0.01)"><path class="a" d="M61.744,9.985v6.234a1.178,1.178,0,0,1-1.192,1.158H17.936a1.149,1.149,0,0,1-1.158-1.158V14.107h34.3a7.327,7.327,0,0,0,7.086-5.348h2.385a1.237,1.237,0,0,1,1.192,1.227Z" transform="translate(-16.778 -8.758)"/></g></g></g></g><g transform="translate(0 19.994)"><g transform="translate(0 0.015)"><path class="a" d="M108.625,41.5v97.053a6.833,6.833,0,0,1-6.813,6.813h-93A6.833,6.833,0,0,1,2,138.552V15.916A6.833,6.833,0,0,1,8.813,9.1H76.195Z" transform="translate(-2 -9.103)"/></g><g class="d" transform="translate(0 22.022)"><path class="a" d="M108.625,25.89v97.053a6.833,6.833,0,0,1-6.813,6.813h-93A6.833,6.833,0,0,1,2,122.943v-3.679c53.244-1.874,96.235-46.022,96.235-99.71V15.5Z" transform="translate(-2 -15.5)"/></g><g transform="translate(74.205)"><path class="a" d="M56,41.525H30.753a7.182,7.182,0,0,1-7.182-7.182V9.1Z" transform="translate(-23.571 -9.098)"/></g><g transform="translate(12.969 23.793)"><g class="e" transform="translate(0 67.488)"><g transform="translate(0 0.016)"><path class="f" d="M86.469,36.813v6.232a1.225,1.225,0,0,1-1.21,1.21H6.98a1.225,1.225,0,0,1-1.21-1.21V36.813a1.2,1.2,0,0,1,1.21-1.175H85.259A1.2,1.2,0,0,1,86.469,36.813Z" transform="translate(-5.77 -35.638)"/></g><g class="c" transform="translate(0.009)"><path class="f" d="M86.474,36.825v6.234a1.237,1.237,0,0,1-1.226,1.192H6.965a1.207,1.207,0,0,1-1.192-1.192V40.982H75.744a7.439,7.439,0,0,0,7.12-5.348h2.385A1.237,1.237,0,0,1,86.474,36.825Z" transform="translate(-5.773 -35.633)"/></g></g><g class="e" transform="translate(0 44.998)"><g transform="translate(0 0.005)"><path class="f" d="M86.469,30.272V36.5a1.225,1.225,0,0,1-1.21,1.21H6.98A1.225,1.225,0,0,1,5.77,36.5V30.272A1.2,1.2,0,0,1,6.98,29.1H85.259A1.2,1.2,0,0,1,86.469,30.272Z" transform="translate(-5.77 -29.097)"/></g><g class="c" transform="translate(0.009)"><path class="f" d="M86.474,30.288v6.234a1.237,1.237,0,0,1-1.226,1.192H6.965a1.207,1.207,0,0,1-1.192-1.192V34.41H75.744a7.44,7.44,0,0,0,7.12-5.314h2.385a1.214,1.214,0,0,1,1.226,1.192Z" transform="translate(-5.773 -29.095)"/></g></g><g class="e" transform="translate(0 22.5)"><path class="f" d="M86.469,23.731v6.232a1.225,1.225,0,0,1-1.21,1.21H6.98a1.225,1.225,0,0,1-1.21-1.21V23.731a1.2,1.2,0,0,1,1.21-1.175H85.259A1.2,1.2,0,0,1,86.469,23.731Z" transform="translate(-5.77 -22.556)"/><g class="c" transform="translate(0.009 0.006)"><path class="f" d="M86.474,23.716V29.95a1.243,1.243,0,0,1-1.226,1.227H6.965A1.215,1.215,0,0,1,5.773,29.95V27.872H75.744a7.44,7.44,0,0,0,7.12-5.314h2.385a1.208,1.208,0,0,1,1.226,1.158Z" transform="translate(-5.773 -22.557)"/></g></g><g class="e" transform="translate(0 89.989)"><path class="f" d="M86.469,43.349v6.232a1.225,1.225,0,0,1-1.21,1.21H6.98a1.225,1.225,0,0,1-1.21-1.21V43.349a1.2,1.2,0,0,1,1.21-1.175H85.259A1.2,1.2,0,0,1,86.469,43.349Z" transform="translate(-5.77 -42.174)"/><g class="c" transform="translate(0.009 0.006)"><path class="f" d="M86.474,43.334v6.234a1.243,1.243,0,0,1-1.226,1.226H6.965a1.214,1.214,0,0,1-1.192-1.226V47.49H75.744a7.44,7.44,0,0,0,7.12-5.314h2.385A1.208,1.208,0,0,1,86.474,43.334Z" transform="translate(-5.773 -42.176)"/></g></g><g class="e" transform="translate(0)"><g transform="translate(0 0.016)"><path class="f" d="M50.761,17.229v6.232a1.2,1.2,0,0,1-1.21,1.175H6.946A1.166,1.166,0,0,1,5.77,23.461V17.229a1.2,1.2,0,0,1,1.175-1.21H49.551a1.225,1.225,0,0,1,1.21,1.21Z" transform="translate(-5.77 -16.02)"/></g><g class="c" transform="translate(0.009)"><path class="f" d="M50.74,17.241v6.234a1.178,1.178,0,0,1-1.192,1.158H6.931a1.149,1.149,0,0,1-1.158-1.158V21.363h34.3a7.327,7.327,0,0,0,7.086-5.348h2.385a1.237,1.237,0,0,1,1.192,1.227Z" transform="translate(-5.773 -16.015)"/></g></g></g></g></g><g transform="translate(1 2.286)"><g transform="translate(141.687 30.676)"><path class="a" d="M57.717,12.831V111.25c0,11.2-2.637,18.98-7.716,28.943l-.033.033c-5.111-9.995-7.781-17.808-7.781-29.04V12.831A1.612,1.612,0,0,1,43.816,11.2H56.089a1.612,1.612,0,0,1,1.628,1.628Z" transform="translate(-42.188 -11.204)"/></g><g transform="translate(141.687 30.676)"><path class="g" d="M57.717,21.583V12.831A1.612,1.612,0,0,0,56.089,11.2H43.816a1.612,1.612,0,0,0-1.628,1.628v8.752Z" transform="translate(-42.188 -11.204)"/></g><g transform="translate(141.687 128.442)"><path class="g" d="M42.188,39.624v2.215c0,11.232,2.67,19.046,7.781,29.04L50,70.846C55.08,60.884,57.717,53.1,57.717,41.9v-2.28Z" transform="translate(-42.188 -39.624)"/></g><path class="f" d="M124.26,2.286h-93A10.264,10.264,0,0,0,21.009,12.539v9.756H11.253A10.264,10.264,0,0,0,1,32.548V155.186a10.264,10.264,0,0,0,10.253,10.253h93A10.264,10.264,0,0,0,114.5,155.186V145.43h9.756a10.267,10.267,0,0,0,10.253-10.256V12.539A10.264,10.264,0,0,0,124.26,2.286ZM104.251,158.559h-93a3.376,3.376,0,0,1-3.373-3.373V32.547a3.377,3.377,0,0,1,3.373-3.373H75.2V50.964A10.635,10.635,0,0,0,85.827,61.586h21.8v93.6a3.376,3.376,0,0,1-3.373,3.373ZM102.767,54.706H85.827a3.746,3.746,0,0,1-3.742-3.742V34.044Zm24.866,80.468a3.379,3.379,0,0,1-3.373,3.376H114.5V58.52a3.23,3.23,0,0,0-1.293-3.107L81.077,23.287a3.867,3.867,0,0,0-2.736-.993c-.01,0-.02,0-.03,0H27.889V12.539a3.377,3.377,0,0,1,3.373-3.373h93a3.377,3.377,0,0,1,3.373,3.373Z" transform="translate(-1 -2.286)"/><path class="f" d="M67.154,29H63.6V23.693a5.072,5.072,0,0,0-5.068-5.068h-.978V11.912a5.16,5.16,0,0,0-10.32,0v6.714h-.976a5.074,5.074,0,0,0-5.069,5.068v98.353c0,12.2,3.123,20.754,8.16,30.6a3.472,3.472,0,0,0,6.159-.034c5-9.8,8.091-18.322,8.091-30.507V35.885h3.556a.909.909,0,0,1,.907.909V67.27a3.44,3.44,0,1,0,6.88,0V36.793A7.8,7.8,0,0,0,67.154,29ZM48.068,116.621V25.506h8.65v91.115Zm4.345,26.442A50.479,50.479,0,0,1,48.139,123.5H56.65a50.493,50.493,0,0,1-4.237,19.562Z" transform="translate(97.058 8.611)"/></g></g></svg>