<svg xmlns="http://www.w3.org/2000/svg" xmlns:xlink="http://www.w3.org/1999/xlink" width="229" height="229" viewBox="0 0 229 229"><defs><style>.a{fill:#f2f2f2;}.b{fill:#2c3e50;font-size:17px;font-family:Montserrat-Regular, Montserrat;}.c{fill:#009f86;stroke:#407e85;}.d,.g{fill:#f77;}.e{fill:none;stroke:#f77;}.f,.g{stroke:none;}.h{filter:url(#a);}</style><filter id="a" x="0" y="0" width="229" height="229" filterUnits="userSpaceOnUse"><feOffset dx="3" dy="3" input="SourceAlpha"/><feGaussianBlur stdDeviation="3" result="b"/><feFlood flood-opacity="0.161"/><feComposite operator="in" in2="b"/><feComposite in="SourceGraphic"/></filter></defs><g transform="translate(6 6)"><g class="h" transform="matrix(1, 0, 0, 1, -6, -6)"><rect class="a" width="211" height="211" rx="10" transform="translate(6 6)"/></g><text class="b" transform="translate(69 162)"><tspan x="0" y="0">ALARMS</tspan></text><g transform="translate(78.342 119.53)"><path class="c" d="M0,0H51.623" transform="translate(0 8.498)"/><path class="c" d="M2314,459.5a13.76,13.76,0,0,1,2.079-5.723,8.832,8.832,0,0,1,4.5-2.775h37.486a9.239,9.239,0,0,1,4.806,2.775,10.366,10.366,0,0,1,1.7,4.545,10.545,10.545,0,0,1,.13,1.178" transform="translate(-2313.522 -451)"/></g><g class="d" transform="translate(-2228.707 -323.948)"><path class="f" d="M 2351.632080078125 440.9400329589844 L 2314.5009765625 440.9400329589844 C 2314.504150390625 438.2254943847656 2314.517822265625 424.9952697753906 2314.50048828125 413.5753173828125 L 2314.50048828125 413.5710144042969 L 2314.50048828125 413.5667419433594 C 2314.413818359375 408.9406127929688 2316.158203125 404.5505676269531 2319.412109375 401.2052917480469 C 2321.12744140625 399.44189453125 2323.16943359375 398.0488586425781 2325.481689453125 397.06494140625 C 2327.86572265625 396.0504760742188 2330.41845703125 395.5239868164063 2333.0693359375 395.5001220703125 C 2333.13037109375 395.4995727539063 2333.18994140625 395.4992980957031 2333.250732421875 395.4992980957031 C 2338.25439453125 395.4992980957031 2342.9013671875 397.3827209472656 2346.336181640625 400.8026428222656 C 2349.735107421875 404.186767578125 2351.614990234375 408.7236633300781 2351.629638671875 413.5775756835938 C 2351.696533203125 425.6377868652344 2351.644287109375 438.3023376464844 2351.632080078125 440.9400329589844 Z"/><path class="g" d="M 2351.13427734375 440.4400329589844 C 2351.1494140625 436.9711303710938 2351.193115234375 425.0043640136719 2351.129638671875 413.5791015625 C 2351.115478515625 408.8585815429688 2349.287841796875 404.4469604492188 2345.9833984375 401.1569519042969 C 2342.64306640625 397.8309631347656 2338.12109375 395.9992980957031 2333.250732421875 395.9992980957031 C 2333.19140625 395.9992980957031 2333.13330078125 395.9995727539063 2333.073974609375 396.0000915527344 C 2330.4892578125 396.0233764648438 2328.000732421875 396.5364379882813 2325.677490234375 397.5250244140625 C 2323.4267578125 398.4828186035156 2321.439208984375 399.8383483886719 2319.7705078125 401.5539245605469 C 2316.6103515625 404.8027954101563 2314.916259765625 409.0657043457031 2315.000244140625 413.557373046875 L 2315.00048828125 413.5659790039063 L 2315.00048828125 413.5745544433594 C 2315.016845703125 424.4075927734375 2315.005615234375 436.8695983886719 2315.001708984375 440.4400329589844 L 2351.13427734375 440.4400329589844 M 2352.129638671875 441.4400329589844 L 2314.00048828125 441.4400329589844 C 2314.00048828125 441.4400329589844 2314.02001953125 426.4552001953125 2314.00048828125 413.5760803222656 C 2313.807373046875 403.2437438964844 2322.403564453125 395.0962219238281 2333.06494140625 395.0001220703125 C 2333.12744140625 394.9995727539063 2333.1884765625 394.9992980957031 2333.250732421875 394.9992980957031 C 2343.9453125 394.9992980957031 2352.098876953125 403.3377685546875 2352.129638671875 413.5760803222656 C 2352.205322265625 427.2149047851563 2352.129638671875 441.4400329589844 2352.129638671875 441.4400329589844 Z"/></g><g transform="translate(72.5 60.07)"><line class="e" y2="8.498" transform="translate(31.868)"/><line class="e" y2="8.498" transform="matrix(0.819, 0.574, -0.574, 0.819, 50.239, 3.955)"/><line class="e" y2="8.498" transform="matrix(0.819, -0.574, 0.574, 0.819, 14.559, 3.955)"/><path class="e" d="M0,0V8.5" transform="translate(8.498 37.71) rotate(90)"/><path class="e" d="M0,0V8.5" transform="translate(1.46 18.918) rotate(-65)"/><path class="e" d="M0,0V8.5" transform="translate(62.275 18.918) rotate(65)"/><line class="e" y2="8.498" transform="translate(64.797 37.71) rotate(90)"/></g></g></svg>