<svg xmlns="http://www.w3.org/2000/svg" width="53.397" height="45.038" viewBox="0 0 53.397 45.038"><defs><style>.a{fill:#fff;}</style></defs><g transform="translate(0 -40)"><path class="a" d="M47.6,40H5.8A5.806,5.806,0,0,0,0,45.8V79.238a5.806,5.806,0,0,0,5.8,5.8H47.6a5.806,5.806,0,0,0,5.8-5.8V45.8A5.806,5.806,0,0,0,47.6,40ZM51.83,79.238A4.237,4.237,0,0,1,47.6,83.47H5.8a4.237,4.237,0,0,1-4.232-4.232V45.8A4.237,4.237,0,0,1,5.8,41.567H47.6A4.237,4.237,0,0,1,51.83,45.8Z"/><path class="a" d="M77.926,120H32.784a.784.784,0,0,0,0,1.567H77.926a.784.784,0,0,0,0-1.567Z" transform="translate(-28.656 -71.64)"/><path class="a" d="M48.784,81.567a.785.785,0,1,0-.554-.23A.785.785,0,0,0,48.784,81.567Z" transform="translate(-42.984 -35.82)"/><path class="a" d="M112.784,81.567a.785.785,0,1,0-.554-.23A.787.787,0,0,0,112.784,81.567Z" transform="translate(-100.296 -35.82)"/><path class="a" d="M80.784,81.567a.785.785,0,1,0-.554-.23A.785.785,0,0,0,80.784,81.567Z" transform="translate(-71.64 -35.82)"/><path class="a" d="M105.7,208.229a.784.784,0,0,0-1.108,0l-8.36,8.36a.784.784,0,0,0,0,1.108l8.36,8.36a.784.784,0,0,0,1.108-1.108l-7.806-7.805,7.806-7.805A.784.784,0,0,0,105.7,208.229Z" transform="translate(-85.969 -150.445)"/><path class="a" d="M321.338,208.229a.784.784,0,1,0-1.108,1.108l7.806,7.805-7.806,7.805a.784.784,0,0,0,1.108,1.108l8.36-8.36a.784.784,0,0,0,0-1.108Z" transform="translate(-286.562 -150.445)"/><path class="a" d="M223.738,200.046a.784.784,0,0,0-1,.469l-6.688,18.391a.784.784,0,1,0,1.473.536l6.688-18.391A.784.784,0,0,0,223.738,200.046Z" transform="translate(-193.427 -143.28)"/></g></svg>