<svg xmlns="http://www.w3.org/2000/svg" xmlns:xlink="http://www.w3.org/1999/xlink" width="229" height="229" viewBox="0 0 229 229"><defs><style>.a{fill:#f2f2f2;}.b{opacity:0.8;}.c,.e{fill:none;}.c,.d{stroke:#115e67;}.d{fill:#009f86;}.f{fill:#30af9b;}.g{stroke:none;}.h{filter:url(#a);}</style><filter id="a" x="0" y="0" width="229" height="229" filterUnits="userSpaceOnUse"><feOffset dx="3" dy="3" input="SourceAlpha"/><feGaussianBlur stdDeviation="3" result="b"/><feFlood flood-opacity="0.161"/><feComposite operator="in" in2="b"/><feComposite in="SourceGraphic"/></filter></defs><g transform="translate(6 6)"><g class="h" transform="matrix(1, 0, 0, 1, -6, -6)"><rect class="a" width="211" height="211" rx="10" transform="translate(6 6)"/></g><g transform="translate(-315 -1053)"><g class="b" transform="translate(391 1113)"><g class="c" transform="translate(7)"><rect class="g" width="55" height="68" rx="3"/><rect class="e" x="0.5" y="0.5" width="54" height="67" rx="2.5"/></g><line class="c" y2="65.967" transform="translate(17.356 0.653)"/><g class="d" transform="translate(0 5)"><rect class="g" width="14" height="7" rx="3.5"/><rect class="e" x="0.5" y="0.5" width="13" height="6" rx="3"/></g><g class="d" transform="translate(0.356 17.145)"><rect class="g" width="13.469" height="7.252" rx="3.626"/><rect class="e" x="0.5" y="0.5" width="12.469" height="6.252" rx="3.126"/></g><g class="d" transform="translate(0.356 29.616)"><rect class="g" width="13.469" height="7.252" rx="3.626"/><rect class="e" x="0.5" y="0.5" width="12.469" height="6.252" rx="3.126"/></g><g class="d" transform="translate(0.356 42.088)"><rect class="g" width="13.469" height="7.252" rx="3.626"/><rect class="e" x="0.5" y="0.5" width="12.469" height="6.252" rx="3.126"/></g><g class="d" transform="translate(0 55)"><rect class="g" width="14" height="7" rx="3.5"/><rect class="e" x="0.5" y="0.5" width="13" height="6" rx="3"/></g><g class="c" transform="translate(20 14)"><ellipse class="g" cx="19" cy="19.5" rx="19" ry="19.5"/><ellipse class="e" cx="19" cy="19.5" rx="18.5" ry="19"/></g><g class="d" transform="translate(32.474 22.137)"><circle class="g" cx="6.734" cy="6.734" r="6.734"/><circle class="e" cx="6.734" cy="6.734" r="6.234"/></g><path class="d" d="M2317.954,673.964a12.365,12.365,0,0,1,4.835-8.453,13.522,13.522,0,0,1,8.09-2.248c12.257-.028,12.5,10.7,12.5,10.7" transform="translate(-2291.601 -626.621)"/></g><path class="e" d="M-.7.582.864-1.208H22.72L24.546.582,20.631,4.236a22.8,22.8,0,0,1-9.28,1.946A22.379,22.379,0,0,1,2.379,3.287Z" transform="translate(418.268 1159.306)"/><path class="f" d="M-1.342,1.514s24.973-.769,24.254.118a24.967,24.967,0,0,1-3.765,2.793L16.275,5.567s-1.242.284-2.27.5a20.716,20.716,0,0,1-6.293,0,18.367,18.367,0,0,1-5.46-1.982A19.248,19.248,0,0,1-1.342,1.514Z" transform="translate(419.281 1158.767)"/></g></g></svg>