<svg xmlns="http://www.w3.org/2000/svg" xmlns:xlink="http://www.w3.org/1999/xlink" width="229" height="229" viewBox="0 0 229 229"><defs><style>.a{fill:#f2f2f2;}.b{fill:#2c3e50;font-size:17px;font-family:Montserrat-Regular, Montserrat;}.c{fill:#009f86;}.d{filter:url(#a);}</style><filter id="a" x="0" y="0" width="229" height="229" filterUnits="userSpaceOnUse"><feOffset dx="3" dy="3" input="SourceAlpha"/><feGaussianBlur stdDeviation="3" result="b"/><feFlood flood-opacity="0.161"/><feComposite operator="in" in2="b"/><feComposite in="SourceGraphic"/></filter></defs><g transform="translate(6 6)"><g class="d" transform="matrix(1, 0, 0, 1, -6, -6)"><rect class="a" width="211" height="211" rx="10" transform="translate(6 6)"/></g><text class="b" transform="translate(15 163)"><tspan x="0" y="0">DATA MANAGEMENT</tspan></text><g transform="translate(75.9 70)"><path class="c" d="M32.086,33.14q-1.323.041-2.642.043c-.881,0-1.766-.014-2.65-.043A59.494,59.494,0,0,1,9.152,30.385,20.718,20.718,0,0,1,4.1,28v9.529c2.885,3.012,12.564,5.789,25.343,5.789S51.9,40.541,54.786,37.529V28a20.767,20.767,0,0,1-5.094,2.4A59.6,59.6,0,0,1,32.086,33.14Z" transform="translate(0 0.384)"/><path class="c" d="M4.1,14.889v9.529C6.774,27.21,15.284,29.8,26.692,30.164c.117,0,.236.005.354.008.33.009.66.018,1,.023q.695.012,1.4.012t1.4-.011c.335-.005.665-.014,1-.023l.354-.008C43.6,29.8,52.112,27.21,54.786,24.419v-9.53c-4.934,3.389-15.364,5.181-25.343,5.181S9.035,18.278,4.1,14.889Z" transform="translate(0 0.204)"/><path class="c" d="M54.649,8.659C53.512,4.3,44.766,0,29.443,0,14.159,0,5.422,4.278,4.249,8.627a.984.984,0,0,0-.149.5v2.338c2.876,3,12.486,5.772,25.343,5.772s22.468-2.771,25.343-5.772V9.124A.933.933,0,0,0,54.649,8.659Z"/><path class="c" d="M4.1,41v8.314a.953.953,0,0,0,.119.457c1.2,4.962,11.908,8.666,25.224,8.666,13.286,0,23.98-3.689,25.216-8.633a1.007,1.007,0,0,0,.127-.491V41c-4.192,2.951-12.829,5.27-25.343,5.27S8.291,43.951,4.1,41Z" transform="translate(0 0.563)"/></g></g></svg>