<svg xmlns="http://www.w3.org/2000/svg" width="47.5" height="60.833" viewBox="0 0 47.5 60.833"><defs><style>.a{fill:#fff;}</style></defs><g transform="translate(-56)"><path class="a" d="M103.5,13.185c0-.022-.006-.043-.01-.065s0-.015,0-.022c-.005-.026-.012-.051-.019-.075l0-.009c-.008-.025-.017-.05-.027-.074l0-.008c-.01-.023-.021-.046-.032-.068l-.005-.011c-.011-.021-.023-.04-.036-.06l-.009-.015c-.012-.018-.026-.036-.039-.053l-.013-.017c-.017-.021-.035-.04-.054-.059l0-.005L90.857.261,90.851.255C90.832.237,90.813.22,90.793.2l-.02-.015c-.016-.013-.033-.025-.05-.037L90.7.14c-.019-.012-.037-.023-.057-.034L90.634.1c-.022-.011-.043-.022-.066-.031l-.009,0c-.024-.01-.048-.019-.073-.026l-.01,0C90.452.029,90.427.023,90.4.017l-.023,0c-.021,0-.042-.007-.064-.01a.885.885,0,0,0-.089,0H60.7A4.708,4.708,0,0,0,56,4.7V56.131a4.708,4.708,0,0,0,4.7,4.7H98.8a4.708,4.708,0,0,0,4.7-4.7V13.274A.892.892,0,0,0,103.5,13.185ZM91.119,3.048l9.333,9.333H94.036a2.92,2.92,0,0,1-2.917-2.917Zm7.679,56H60.7a2.92,2.92,0,0,1-2.917-2.917V4.7A2.92,2.92,0,0,1,60.7,1.786H89.333V9.464a4.708,4.708,0,0,0,4.7,4.7h7.679V56.131A2.92,2.92,0,0,1,98.8,59.048Z"/><path class="a" d="M342.605,248h-5.714a.893.893,0,0,0,0,1.786h5.714a.893.893,0,1,0,0-1.786Z" transform="translate(-246.665 -218.476)"/><path class="a" d="M112.893,249.786H135.75a.893.893,0,0,0,0-1.786H112.893a.893.893,0,1,0,0,1.786Z" transform="translate(-49.333 -218.476)"/><path class="a" d="M208.7,152h-23.81a.893.893,0,0,0,0,1.786H208.7a.893.893,0,0,0,0-1.786Z" transform="translate(-112.762 -133.905)"/><path class="a" d="M112.893,153.786h4.762a.893.893,0,1,0,0-1.786h-4.762a.893.893,0,1,0,0,1.786Z" transform="translate(-49.333 -133.905)"/><path class="a" d="M250.988,344h-18.1a.893.893,0,1,0,0,1.786h18.1a.893.893,0,1,0,0-1.786Z" transform="translate(-155.048 -303.048)"/><path class="a" d="M123.369,344H112.893a.893.893,0,1,0,0,1.786h10.476a.893.893,0,0,0,0-1.786Z" transform="translate(-49.333 -303.048)"/><path class="a" d="M145.274,200H112.893a.893.893,0,1,0,0,1.786h32.381a.893.893,0,0,0,0-1.786Z" transform="translate(-49.333 -176.19)"/><path class="a" d="M145.274,296H112.893a.893.893,0,1,0,0,1.786h32.381a.893.893,0,0,0,0-1.786Z" transform="translate(-49.333 -260.762)"/></g></svg>