<svg xmlns="http://www.w3.org/2000/svg" width="12.588" height="16.122" viewBox="0 0 12.588 16.122"><defs><style>.a{fill:#2c3e50;}</style></defs><g transform="translate(-56)"><path class="a" d="M68.587,3.494c0-.006,0-.012,0-.017V3.471c0-.007,0-.013-.005-.02v0l-.007-.02v0l-.008-.018v0l-.009-.016,0,0-.01-.014,0,0-.014-.016h0L65.238.069l0,0L65.221.054l-.005,0L65.2.04l0,0L65.182.028l0,0L65.161.018h0L65.139.01h0l-.02,0h-.006l-.017,0H57.246A1.248,1.248,0,0,0,56,1.246V14.875a1.248,1.248,0,0,0,1.246,1.246h10.1a1.248,1.248,0,0,0,1.246-1.246V3.518A.234.234,0,0,0,68.587,3.494ZM65.307.808,67.78,3.281h-1.7a.774.774,0,0,1-.773-.773Zm2.035,14.84h-10.1a.774.774,0,0,1-.773-.773V1.246a.774.774,0,0,1,.773-.773h7.588V2.508A1.248,1.248,0,0,0,66.08,3.754h2.035V14.875A.774.774,0,0,1,67.342,15.648Z"/><path class="a" d="M337.749,248h-1.514a.237.237,0,1,0,0,.473h1.514a.237.237,0,0,0,0-.473Z" transform="translate(-271.164 -240.176)"/><path class="a" d="M112.237,248.473h6.057a.237.237,0,0,0,0-.473h-6.057a.237.237,0,0,0,0,.473Z" transform="translate(-54.233 -240.176)"/><path class="a" d="M190.546,152h-6.31a.237.237,0,0,0,0,.473h6.31a.237.237,0,0,0,0-.473Z" transform="translate(-123.962 -147.205)"/><path class="a" d="M112.237,152.473H113.5a.237.237,0,0,0,0-.473h-1.262a.237.237,0,0,0,0,.473Z" transform="translate(-54.233 -147.205)"/><path class="a" d="M237.032,344h-4.8a.237.237,0,1,0,0,.473h4.8a.237.237,0,0,0,0-.473Z" transform="translate(-170.447 -333.147)"/><path class="a" d="M115.013,344h-2.776a.237.237,0,1,0,0,.473h2.776a.237.237,0,1,0,0-.473Z" transform="translate(-54.233 -333.147)"/><path class="a" d="M120.818,200h-8.581a.237.237,0,0,0,0,.473h8.581a.237.237,0,0,0,0-.473Z" transform="translate(-54.233 -193.69)"/><path class="a" d="M120.818,296h-8.581a.237.237,0,1,0,0,.473h8.581a.237.237,0,0,0,0-.473Z" transform="translate(-54.233 -286.661)"/></g></svg>