<svg xmlns="http://www.w3.org/2000/svg" width="162.5" height="177.281" viewBox="0 0 162.5 177.281"><defs><style>.a{fill:teal;}.b{fill:#55bfa2;}.c{fill:#86eab8;}.d{fill:none;}</style></defs><g transform="translate(-27.84 -24.07)"><path class="a" d="M190.243,65.312,109.032,24.07,27.84,65.312,68.446,85.932l40.586-20.621,40.606,20.621Z" transform="translate(0 0)"/><path class="b" d="M68.446,113.489V66.119L27.84,45.44v94.721l40.606,20.7,40.586,20.679v-47.37Z" transform="translate(0 19.814)"/><path class="b" d="M90.333,55.889,70.04,45.54V92.91l40.606,20.679V66.219Z" transform="translate(39.127 19.907)"/><path class="c" d="M110.616,66.119v47.37L70.03,134.167v47.37l40.586-20.679,40.606-20.7V45.44Z" transform="translate(39.118 19.814)"/><path class="c" d="M69.253,55.789,48.96,66.119v47.37L89.566,92.81V45.44Z" transform="translate(19.582 19.814)"/><path class="a" d="M89.576,70.05,48.97,90.671l40.606,20.621,20.293-10.31,20.312-10.31Z" transform="translate(19.591 42.632)"/><line class="d" x2="81.192" y2="41.377" transform="translate(27.936 112.624)"/><path class="d" d="M48.96,90.771,89.566,70.15l40.586,20.621" transform="translate(19.582 42.724)"/></g></svg>