<svg xmlns="http://www.w3.org/2000/svg" width="196.183" height="147.529" viewBox="0 0 118.275 69.181"><defs><style>.a{fill:#009f86;}</style></defs><path class="a" d="M-8456.1-5286.13H-8490v-.01a30.236,30.236,0,0,1,1.6-7.178,31.576,31.576,0,0,1,3.2-6.646,27.63,27.63,0,0,1,5.862-6.6,22.4,22.4,0,0,1,7.147-3.816,34.1,34.1,0,0,1,10.678-1.619h.1a29.736,29.736,0,0,1,14.267,3.239,23.062,23.062,0,0,1,8.2,7.476,23.7,23.7,0,0,0-9.061,4.379,28.409,28.409,0,0,0-8.088,10.776Z" transform="translate(8490 5344.653)"/><g transform="translate(-46.53 -59.818)"><path class="a" d="M15.79,0A15.79,15.79,0,0,1,31.58,15.79a16,16,0,0,1-2.666,8.783A15.622,15.622,0,0,1,15.79,31.58,15.79,15.79,0,1,1,15.79,0Z" transform="translate(121.481 59.818)"/><ellipse class="a" cx="15.781" cy="15.781" rx="15.781" ry="15.781" transform="translate(58.704 59.818)"/><path class="a" d="M-8404.061-5286.13H-8436.1a24.059,24.059,0,0,0-18.045-15.5,27.373,27.373,0,0,1,4.718-4.94,22.414,22.414,0,0,1,7.148-3.816A34.1,34.1,0,0,1-8431.6-5312h.1c6.139,0,11.4,1.36,15.641,4.042a23.632,23.632,0,0,1,8.17,8.894,31.662,31.662,0,0,1,3.123,8.893,26.576,26.576,0,0,1,.5,4.042Z" transform="translate(8568.866 5404.471)"/><ellipse class="a" cx="15.781" cy="15.781" rx="15.781" ry="15.781" transform="translate(90.3 69.477)"/></g><path class="a" d="M2317.955,689.134s.694-12.356,10.506-20.435c3.56-2.952,9.376-5.414,17.579-5.436,26.633-.068,27.158,25.871,27.158,25.871" transform="translate(-2285.711 -619.953)"/></svg>