<svg xmlns="http://www.w3.org/2000/svg" xmlns:xlink="http://www.w3.org/1999/xlink" width="229" height="229" viewBox="0 0 229 229"><defs><style>.a,.f{fill:#f2f2f2;}.b{fill:#2c3e50;font-size:17px;font-family:Montserrat-Regular, Montserrat;}.c,.d{fill:#009f86;}.d{stroke:#f2f2f2;}.e,.f{stroke:none;}.g{fill:none;}.h{filter:url(#a);}</style><filter id="a" x="0" y="0" width="229" height="229" filterUnits="userSpaceOnUse"><feOffset dx="3" dy="3" input="SourceAlpha"/><feGaussianBlur stdDeviation="3" result="b"/><feFlood flood-opacity="0.161"/><feComposite operator="in" in2="b"/><feComposite in="SourceGraphic"/></filter></defs><g transform="translate(6 6)"><g class="h" transform="matrix(1, 0, 0, 1, -6, -6)"><rect class="a" width="211" height="211" rx="10" transform="translate(6 6)"/></g><text class="b" transform="translate(68 162)"><tspan x="0" y="0">GROUPS</tspan></text><g class="c" transform="translate(120.481 59.818)"><path class="e" d="M 16.28112983703613 32.06218338012695 C 12.06583976745605 32.06218338012695 8.102849960327148 30.42066383361816 5.122189998626709 27.44001388549805 C 2.141519784927368 24.45935440063477 0.4999998509883881 20.49637413024902 0.4999998509883881 16.28109359741211 C 0.4999998509883881 12.06581401824951 2.141519784927368 8.10283374786377 5.122189998626709 5.12217378616333 C 8.102849960327148 2.141523599624634 12.06583976745605 0.5000035762786865 16.28112983703613 0.5000035762786865 C 20.49641990661621 0.5000035762786865 24.45940971374512 2.141523599624634 27.4400691986084 5.12217378616333 C 30.42074012756348 8.10283374786377 32.06225967407227 12.06581401824951 32.06225967407227 16.28109359741211 C 32.06225967407227 19.3856029510498 31.18878936767578 22.25979423522949 29.39192008972168 25.06789398193359 C 28.08274078369141 27.12332344055176 26.20561027526855 28.86112403869629 23.96291923522949 30.09430313110352 C 21.62162971496582 31.38170433044434 18.9653205871582 32.06218338012695 16.28112983703613 32.06218338012695 Z"/><path class="f" d="M 16.28112983703613 1.000003814697266 C 12.19939041137695 1.000003814697266 8.361959457397461 2.589513778686523 5.475740432739258 5.475732803344727 C 2.589509963989258 8.361944198608398 1 12.19936370849609 1 16.28109359741211 C 1 20.36282348632813 2.589509963989258 24.20024490356445 5.475740432739258 27.08645248413086 C 8.361959457397461 29.9726734161377 12.19939041137695 31.56218338012695 16.28112983703613 31.56218338012695 C 18.88130950927734 31.56218338012695 21.45433044433594 30.9030933380127 23.72200012207031 29.65617370605469 C 25.8913688659668 28.46330261230469 27.70597076416016 26.78412246704102 28.97076988220215 24.79839324951172 C 30.71456909179688 22.07321357727051 31.56225967407227 19.28717422485352 31.56225967407227 16.28109359741211 C 31.56225967407227 12.19936370849609 29.97274971008301 8.361944198608398 27.08651924133301 5.475732803344727 C 24.2003002166748 2.589513778686523 20.36286926269531 1.000003814697266 16.28112983703613 1.000003814697266 M 16.28112983703613 3.814697265625e-06 C 25.27294921875 3.814697265625e-06 32.56225967407227 7.28929328918457 32.56225967407227 16.28109359741211 C 32.56225967407227 19.50015258789063 31.6280403137207 22.50100326538086 29.81307983398438 25.33738327026367 C 27.12492942810059 29.55779266357422 22.05389022827148 32.56218338012695 16.28112983703613 32.56218338012695 C 7.289310455322266 32.56218338012695 0 25.27289390563965 0 16.28109359741211 C 0 7.28929328918457 7.289310455322266 3.814697265625e-06 16.28112983703613 3.814697265625e-06 Z"/></g><g class="d" transform="translate(57.704 59.818)"><ellipse class="e" cx="16.281" cy="16.281" rx="16.281" ry="16.281"/><ellipse class="g" cx="16.281" cy="16.281" rx="15.781" ry="15.781"/></g><path class="d" d="M2317.955,689.134s.7-12.356,10.653-20.435c3.61-2.952,9.508-5.414,17.825-5.436,27.008-.068,27.539,25.871,27.539,25.871" transform="translate(-2209.167 -570.792)"/><path class="d" d="M2317.955,689.134s.7-12.356,10.653-20.435c3.61-2.952,9.508-5.414,17.825-5.436,27.008-.068,27.539,25.871,27.539,25.871" transform="translate(-2271.424 -570.792)"/><g class="d" transform="translate(90.3 69.477)"><ellipse class="e" cx="16.281" cy="16.281" rx="16.281" ry="16.281"/><ellipse class="g" cx="16.281" cy="16.281" rx="15.781" ry="15.781"/></g><path class="d" d="M2317.955,689.134s.7-12.356,10.653-20.435c3.61-2.952,9.508-5.414,17.825-5.436,27.008-.068,27.539,25.871,27.539,25.871" transform="translate(-2239.088 -561.134)"/></g></svg>