<svg xmlns="http://www.w3.org/2000/svg" xmlns:xlink="http://www.w3.org/1999/xlink" width="196.183" height="147.529" viewBox="0 0 196.183 147.529"><defs><style>.a{fill:url(#a);}.b{fill:#f6f6f6;}.c{opacity:0.5;}.d{fill:url(#b);}.e{fill:url(#c);}.f{fill:url(#d);}.g{fill:url(#e);}.h{fill:#bebebe;}.h,.m{opacity:0.31;}.i{fill:url(#f);}.j{fill:url(#g);}.k{fill:url(#h);}.l{fill:url(#i);}.m{fill:url(#j);}.n{fill:url(#k);}.o{fill:url(#l);}.p{fill:url(#m);}.q{fill:url(#n);}</style><linearGradient id="a" x1="18.778" y1="-84.637" x2="19.485" y2="-84.637" gradientUnits="objectBoundingBox"><stop offset="0" stop-color="teal"/><stop offset="1" stop-color="#86eab8"/></linearGradient><linearGradient id="b" x1="37.152" y1="-169.995" x2="38.169" y2="-169.995" xlink:href="#a"/><linearGradient id="c" x1="37.358" y1="-169.556" x2="38.376" y2="-169.556" xlink:href="#a"/><linearGradient id="d" x1="37.565" y1="-169.458" x2="37.961" y2="-169.458" xlink:href="#a"/><linearGradient id="e" x1="37.566" y1="-170.092" x2="37.962" y2="-170.092" xlink:href="#a"/><linearGradient id="f" x1="36.939" y1="-169.794" x2="37.957" y2="-169.794" xlink:href="#a"/><linearGradient id="g" x1="37.145" y1="-169.355" x2="38.163" y2="-169.355" xlink:href="#a"/><linearGradient id="h" x1="37.352" y1="-169.258" x2="37.749" y2="-169.258" xlink:href="#a"/><linearGradient id="i" x1="37.353" y1="-169.892" x2="37.75" y2="-169.892" xlink:href="#a"/><linearGradient id="j" x1="18.566" y1="-84.437" x2="19.273" y2="-84.437" xlink:href="#a"/><linearGradient id="k" x1="36.727" y1="-169.594" x2="37.744" y2="-169.594" xlink:href="#a"/><linearGradient id="l" x1="36.933" y1="-169.155" x2="37.951" y2="-169.155" xlink:href="#a"/><linearGradient id="m" x1="37.14" y1="-169.057" x2="37.536" y2="-169.057" xlink:href="#a"/><linearGradient id="n" x1="37.141" y1="-169.691" x2="37.537" y2="-169.691" xlink:href="#a"/></defs><g transform="translate(-328 -218.701)"><path class="a" d="M194.908,150.623l-97.3,42.727L.33,150.623,97.612,107.87Z" transform="translate(328.467 171.078)"/><path class="b" d="M98.595,195.571h-1.58L-.28,152.843v-3.59l97.3-42.753h1.58L195.9,149.24v3.6ZM5.386,151.029,97.8,191.641l92.426-40.613L97.8,110.429Z" transform="translate(328.28 170.659)"/><g class="c" transform="translate(393.397 292.62)"><line class="d" x2="97.295" y2="42.74" transform="translate(0.255 0.583)"/><rect class="b" width="1.306" height="106.264" transform="translate(0 1.195) rotate(-66.28)"/></g><g class="c" transform="translate(360.964 306.863)"><line class="e" x2="97.282" y2="42.74" transform="translate(0.26 0.583)"/><rect class="b" width="1.306" height="106.264" transform="translate(0 1.195) rotate(-66.28)"/></g><g class="c" transform="translate(360.955 292.621)"><line class="f" y1="42.74" x2="97.282" transform="translate(0.269 0.583)"/><rect class="b" width="106.264" height="1.306" transform="translate(0 42.73) rotate(-23.71)"/></g><g class="c" transform="translate(393.383 306.864)"><line class="g" y1="42.74" x2="97.295" transform="translate(0.269 0.582)"/><rect class="b" width="106.264" height="1.306" transform="translate(0 42.73) rotate(-23.71)"/></g><path class="h" d="M194.908,128.22l-97.3,42.753L.33,128.22,97.612,85.48Z" transform="translate(328.467 164.239)"/><path class="b" d="M98.595,173.181h-1.58L-.28,130.44v-3.59l97.3-42.74h1.58L195.9,126.85v3.59ZM5.386,128.639,97.8,169.251l92.426-40.613L97.8,88.039Z" transform="translate(328.28 163.82)"/><g class="c" transform="translate(393.399 263.382)"><line class="i" x2="97.295" y2="42.74" transform="translate(0.253 0.592)"/><rect class="b" width="1.306" height="106.264" transform="translate(0 1.195) rotate(-66.28)"/></g><g class="c" transform="translate(360.953 277.625)"><line class="j" x2="97.282" y2="42.74" transform="translate(0.271 0.592)"/><rect class="b" width="1.306" height="106.264" transform="translate(0 1.195) rotate(-66.28)"/></g><g class="c" transform="translate(360.951 263.392)"><line class="k" y1="42.74" x2="97.282" transform="translate(0.273 0.583)"/><rect class="b" width="106.264" height="1.306" transform="translate(0 42.73) rotate(-23.71)"/></g><g class="c" transform="translate(393.378 277.635)"><line class="l" y1="42.74" x2="97.295" transform="translate(0.273 0.582)"/><rect class="b" width="106.264" height="1.306" transform="translate(0 42.73) rotate(-23.71)"/></g><path class="m" d="M194.908,105.83l-97.3,42.74L.33,105.83,97.612,63.09Z" transform="translate(328.467 157.4)"/><path class="b" d="M98.595,150.856h-1.58L-.28,108.05v-3.59l97.3-42.74h1.58L195.9,104.46v3.59ZM5.386,106.249,97.8,146.861l92.426-40.613L97.8,65.649Z" transform="translate(328.28 156.981)"/><g class="c" transform="translate(393.401 234.157)"><line class="n" x2="97.295" y2="42.74" transform="translate(0.251 0.588)"/><rect class="b" width="1.306" height="106.264" transform="translate(0 1.195) rotate(-66.28)"/></g><g class="c" transform="translate(360.955 248.4)"><line class="o" x2="97.282" y2="42.74" transform="translate(0.269 0.588)"/><rect class="b" width="1.306" height="106.264" transform="translate(0 1.195) rotate(-66.28)"/></g><g class="c" transform="translate(360.959 234.162)"><line class="p" y1="42.74" x2="97.282" transform="translate(0.264 0.583)"/><rect class="b" width="106.264" height="1.306" transform="translate(0 42.73) rotate(-23.71)"/></g><g class="c" transform="translate(393.374 248.406)"><line class="q" y1="42.74" x2="97.295" transform="translate(0.277 0.582)"/><rect class="b" width="106.264" height="1.306" transform="translate(0 42.73) rotate(-23.71)"/></g></g></svg>