<svg xmlns="http://www.w3.org/2000/svg" width="187.115" height="30.926" viewBox="0 0 187.115 30.926"><defs><style>.a,.b{fill:#fff;}.a{stroke:rgba(0,0,0,0);}.c{fill:none;}</style></defs><g transform="translate(-38.895 -69.886)"><path class="a" d="M7979.746-571.688h0l-2.962,0V-599.7h10.483c3.5,0,6.4.882,8.394,2.551a8.853,8.853,0,0,1,3.05,7.052,8.693,8.693,0,0,1-6.4,8.8l6.84,9.6-3.238,0-6.4-9.005a19.871,19.871,0,0,1-2.242.122h-7.52v8.885Zm0-25.453v14.047h7.439c5.523,0,8.564-2.487,8.564-7,0-4.543-3.041-7.044-8.564-7.044Zm-33.054,25.452h-3.083l12.806-28.01h2.921l12.8,28.007-3.121,0-3.357-7.482-1.718-3.891-.028,0-6.061-13.557-6.72,15.045h.022l-1.044,2.4h-.061l-3.359,7.482Zm70.423,0h-11.4V-599.7h11.4a15.493,15.493,0,0,1,10.863,3.911,13.445,13.445,0,0,1,4.144,10.094,13.445,13.445,0,0,1-4.144,10.093A15.493,15.493,0,0,1,8017.115-571.69Zm-8.442-25.451v22.888h8.282c7.324,0,12.245-4.6,12.245-11.442s-4.921-11.446-12.245-11.446ZM7942.25-571.69h-22.968v-2.041l18.566-23.41h-18.284V-599.7h22.207v2.041l-18.525,23.406h19v2.563Zm-29.326,0h-2.963V-599.7h2.963v28.01Zm-7.883,0h-18.646V-599.7h2.959v25.447h15.688v2.563Z" transform="translate(-7847 672)"/><g transform="translate(-104.891 46)"><g transform="translate(301.891 23.886)"><path class="b" d="M36.129,58.2a2.466,2.466,0,0,1-.281,1.852,8.083,8.083,0,0,1-2.825,3.164,2.534,2.534,0,0,1-2.135.243,1.754,1.754,0,0,0-1.791.293,4.823,4.823,0,0,1-.942.852,7.1,7.1,0,0,0-1.585.9c-.413.438-.413.852.058,1.083.606.3,1.042.628.655,1.169-.253.354-.655.256-.965-.036s-.723-.657-.689-.365.31.87.161,1.266c-.137.365-.436.633-.712.413-.314-.25-.046-1.241-.322-1.095s-1.1.828-1.3.62c-.3-.314-.108-.922.31-1.2.827-.56.092-.584-.322-.511s-.58-.757-.092-.925c.919-.317,1.447-.195,1.286-1.265a1.089,1.089,0,0,0-1.389-.731c-1.5.317-3.7-.949-4.49-1.972-1.1-1.417-1.332-2.642-1.814-2.6s-.769.633-1.217.706a2,2,0,0,1-1.677-.853c-.448-.621-.505-1.29-.987-1.144s-.528,1.011-.976,1.011-.793-.292-.517-.8,1.252-1.047.321-1.083-1.063-.151-.976-.633a.852.852,0,0,1,.953-.511c.413.073.769-.037.494-.329s-1.389-.961-.609-1.254c.618-.231,1.125.633,1.263.268s-.069-1.217.551-1.193a1.054,1.054,0,0,1,.781,1.217c-.1.657-.115,1.729.643,1.436a1.719,1.719,0,0,0,1.16-1.863c0-1.059-.356-1.959-.31-3.323a4.456,4.456,0,0,1,1.126-3.14,7.774,7.774,0,0,0,2.078-3.36,2.883,2.883,0,0,0-.964-2.848,6.27,6.27,0,0,0-3.479-1.777,5.44,5.44,0,0,0-3.284.584,9.133,9.133,0,0,0-2.756,2.654,5.622,5.622,0,0,0-.857,4.528s0,.227-.049.024a8.216,8.216,0,0,1-.241-2.872,7.051,7.051,0,0,1,2.021-3.433A6.43,6.43,0,0,1,14.1,39.417a7.089,7.089,0,0,1,4.329,1.825c1.662,1.667,2.122,3.583.675,5.482s-1.281,2.833-1.212,5c.068,2.118,1.938,4.854,3.557,6.327a8.609,8.609,0,0,0,5.6,2.414,9.317,9.317,0,0,0,5.287-.705c1.108-.458,3.7-1.507,3.7-1.507Z" transform="translate(-7.201 -38.685)"/><path class="b" d="M.459,9.075A8.381,8.381,0,0,1,.2,6.124,7.051,7.051,0,0,1,2.221,2.691,6.43,6.43,0,0,1,6.883.756a7.089,7.089,0,0,1,4.329,1.825c1.662,1.667,2.033,3.506.586,5.4a7.09,7.09,0,0,0-1.757,5.295c.068,2.118,2.216,5.161,3.836,6.634a9.64,9.64,0,0,0,5.9,2.727,10.661,10.661,0,0,0,5.764-1.108,21.4,21.4,0,0,0,3.38-2.014,4.21,4.21,0,0,0-.475-.688c-.734-.73-2.755-.608-3.731-.658a5.3,5.3,0,0,0-2.491.463c-.586.329-1.281.865-1.907.414a.863.863,0,0,1,.276-1.436c.594-.157,1.813.388,1.975,0,.092-.219-.115-.389-.6-.535-.445-.135-.275-.8.471-.84s1.432-.244,1.309-.767c-.08-.341-.907,0-1.435.17-.759.245-.44-.482-.184-1.011.207-.425-.206-.645-.551-.6-.573.08-.486.846-.793,1.107-.585.5-.976-.62-1.343-.474-.6.24.092.828.31,1.168.27.42-.62.767-1.344,1.1s-.7,1.39-.655,1.9c.035.39-.608.293-1.412-.341-.924-.728-.206-1.34.252-1.46a1.982,1.982,0,0,0,1.424-1.314c.241-.438-.178-1.532.137-2.045.345-.56.781-.329,1.263-.291s1.01.1,1.125-.281c.138-.45-.257-.355-1.011-.45-.574-.073-.39-.779.011-1.12.479-.406.632-1.071.288-1.266-.445-.251-.976.791-1.459,1.266s-.662-.224-.586-.73c.115-.754-.184-1.046-.551-1.095-.9-.119-.654.973-.62,1.338s-.046.645-.528.463-.98-.427-1.079.048c-.092.439.842.724,1.423,1.217a1.589,1.589,0,0,1-.505,2.24c-.735.171-.965-.578-2.274-.609a1.574,1.574,0,0,1-1.63-1.29c-.212-1.167,1.447-2.337,2.113-3.286a4.936,4.936,0,0,0-.069-5.7A8.473,8.473,0,0,0,9.386.379,8.2,8.2,0,0,0,3.461.755,7.045,7.045,0,0,0,.131,5.247,8.166,8.166,0,0,0,.459,9.075Z" transform="translate(0 0)"/><path class="c" d="M1264.49,965.658c.137-.055.551-.548-.19-.621-.858-.085-1.5.073-1.6.493s.276.493.9.292" transform="translate(-1238.501 -946.535)"/><path class="c" d="M1314.9,1145.345s.608-.341.655.072c.052.456-.691,1.137-1.1,1.279-.534.183-.948-.329-.4-.84" transform="translate(-1288.636 -1123.282)"/></g></g></g></svg>