<svg xmlns="http://www.w3.org/2000/svg" width="147.529" height="147.529" viewBox="0 0 82.896 82.895"><defs><style>.a{fill:teal;}.b{fill:#86eab8;}</style></defs><g transform="translate(48.895 39.019)"><path class="a" d="M319,241a16.992,16.992,0,0,0-13.782,26.942L317.058,283.9a2.427,2.427,0,0,0,1.942.972h0a2.429,2.429,0,0,0,1.942-.975l12.318-16.662A16.992,16.992,0,0,0,319,241Zm0,24.286A7.286,7.286,0,1,1,326.286,258,7.294,7.294,0,0,1,319,265.284Z" transform="translate(-302 -240.998)"/></g><g transform="translate(0 0)"><path class="b" d="M3.678.348A2.428,2.428,0,0,0,0,2.43V51.164a2.429,2.429,0,0,0,1.179,2.082L24.448,67.11v-54.4Z" transform="translate(0 -0.003)"/></g><g transform="translate(53.753 1.052)"><path class="b" d="M355.107,20.365,332,6.5V43.309a21.776,21.776,0,0,1,24.286,0V22.447A2.429,2.429,0,0,0,355.107,20.365Z" transform="translate(-332 -6.5)"/></g><g transform="translate(29.305 1.052)"><path class="b" d="M200.591,6.5,181,18.158v54.4l14.909-8.848a21.783,21.783,0,0,1-.175-2.242A21.64,21.64,0,0,1,200.591,47.9Z" transform="translate(-181 -6.5)"/></g></svg>