<svg xmlns="http://www.w3.org/2000/svg" width="14.09" height="14.043" viewBox="0 0 14.09 14.043"><defs><style>.a{fill:#2c3e50;}</style></defs><g transform="translate(0 -0.85)"><g transform="translate(0 0.85)"><path class="a" d="M7.022,13.723H1.755a.585.585,0,0,1-.585-.585V2.605a.585.585,0,0,1,.585-.585H7.022a.585.585,0,0,0,0-1.17H1.755A1.758,1.758,0,0,0,0,2.605V13.138a1.758,1.758,0,0,0,1.755,1.755H7.022a.585.585,0,0,0,0-1.17Z" transform="translate(0 -0.85)"/></g><g transform="translate(4.681 3.776)"><path class="a" d="M179.335,110.844l-3.558-3.511a.585.585,0,1,0-.822.833l2.542,2.509h-6.813a.585.585,0,0,0,0,1.17H177.5l-2.542,2.509a.585.585,0,1,0,.822.833l3.558-3.511a.585.585,0,0,0,0-.833Z" transform="translate(-170.1 -107.165)"/></g></g></svg>