<svg xmlns="http://www.w3.org/2000/svg" width="63.025" height="64.028" viewBox="0 0 63.025 64.028"><defs><style>.a{fill:#fff;}</style></defs><g transform="translate(-4)"><path class="a" d="M45.035,0a21.978,21.978,0,0,0-15.7,37.367l-3.577,3.577a4.954,4.954,0,0,0-6.272.6L4.862,56.166a2.945,2.945,0,0,0,0,4.164L7.7,63.165a2.945,2.945,0,0,0,4.164,0L26.324,48.7a5.11,5.11,0,0,0,.759-6.43L30.7,38.654A21.986,21.986,0,1,0,45.035,0ZM24.995,47.375,10.533,61.836a1.065,1.065,0,0,1-1.506,0L6.191,59h0a1.065,1.065,0,0,1,0-1.506l14.62-14.62a3.043,3.043,0,0,1,2.169-.9h.083A3.049,3.049,0,0,1,25.269,43,3.23,3.23,0,0,1,24.995,47.375ZM45.035,42.1A20.111,20.111,0,1,1,65.146,21.99,20.133,20.133,0,0,1,45.035,42.1Z"/><path class="a" d="M205.98,32a17.98,17.98,0,1,0,17.98,17.98A18,18,0,0,0,205.98,32Zm0,34.081a16.1,16.1,0,1,1,16.1-16.1A16.119,16.119,0,0,1,205.98,66.081Z" transform="translate(-160.945 -27.99)"/><path class="a" d="M359.526,77.179a14.062,14.062,0,0,0-10.374-10.374.94.94,0,1,0-.432,1.829,12.168,12.168,0,0,1,8.977,8.976.94.94,0,0,0,1.829-.432Z" transform="translate(-300.894 -58.413)"/></g></svg>