<svg xmlns="http://www.w3.org/2000/svg" width="152" height="147.529" viewBox="0 0 87.705 84.895"><defs><style>.a{fill:rgba(134,234,184,0.32);stroke:rgba(0,128,128,0.76);stroke-width:2px;}.b{fill:#86eab8;}.c{fill:teal;}</style></defs><g transform="translate(1 1)"><g transform="translate(0)"><path class="a" d="M0,222.955a4.112,4.112,0,0,0,4.07,4.082H81.634a4.112,4.112,0,0,0,4.07-4.082V216.5H0Zm0,0" transform="translate(0.001 -165.92)"/><path class="a" d="M81.635.5H4.071A4.136,4.136,0,0,0,0,4.611V47.8h85.7V4.611A4.136,4.136,0,0,0,81.635.5Zm0,0" transform="translate(0 -0.5)"/><path class="a" d="M121.213,289.316H106.5a10.235,10.235,0,0,1-2.625-6.94V275.5H87.949v6.876a10.235,10.235,0,0,1-2.625,6.94h-13.7a2.342,2.342,0,1,0,0,4.683h49.589a2.342,2.342,0,1,0,0-4.683Zm0,0" transform="translate(-53.058 -211.104)"/></g><g transform="translate(13.949 7.664)"><g transform="translate(0.991 0.995)"><path class="b" d="M283.506,116.859a1,1,0,0,1-.385-1.916l11.562-4.824,5.823-14.561A1,1,0,0,1,301.8,95a1.051,1.051,0,0,1,.35.221l8.233,8.233,7.519-8.2a1,1,0,0,1,1.468,1.349l-8.223,8.969a1,1,0,0,1-.7.322,1.051,1.051,0,0,1-.725-.294l-7.9-7.9-5.434,13.545a.992.992,0,0,1-.54.55l-11.961,4.982A.971.971,0,0,1,283.506,116.859Z" transform="translate(-282.501 -84.962)"/><path class="b" d="M402.991,73.707a1,1,0,0,1-.4-1.909l11.958-5.234a1,1,0,1,1,.8,1.829l-11.957,5.231A.985.985,0,0,1,402.991,73.707Z" transform="translate(-360.126 -66.479)"/></g><ellipse class="c" cx="1.994" cy="1.994" rx="1.994" ry="1.994" transform="translate(53.821)"/><ellipse class="c" cx="1.994" cy="1.994" rx="1.994" ry="1.994" transform="translate(26.91 18.937)"/><ellipse class="c" cx="1.994" cy="1.994" rx="1.994" ry="1.994" transform="translate(17.941 9.968)"/><ellipse class="c" cx="1.994" cy="1.994" rx="1.994" ry="1.994" transform="translate(11.961 24.917)"/><ellipse class="c" cx="1.994" cy="1.994" rx="1.994" ry="1.994" transform="translate(0 29.899)"/><ellipse class="c" cx="1.994" cy="1.994" rx="1.994" ry="1.994" transform="translate(37.876 6.976)"/><g transform="translate(34.888 3.987)"><path class="c" d="M384.232,84.984A4.982,4.982,0,1,1,389.214,80h0A4.986,4.986,0,0,1,384.232,84.984Zm0-7.971A2.992,2.992,0,1,0,387.22,80a2.992,2.992,0,0,0-2.989-2.989Z" transform="translate(-379.25 -75.02)"/></g></g></g></svg>