<svg xmlns="http://www.w3.org/2000/svg" width="60" height="70" viewBox="0 0 60 70"><defs><style>.a{fill:#009f86;}</style></defs><path class="a" d="M103.143,30a84.637,84.637,0,0,0,17.3-1.68q8.047-1.68,12.7-4.961V30q0,2.7-4.023,5a36.288,36.288,0,0,1-10.937,3.652A78.678,78.678,0,0,1,103.143,40,78.678,78.678,0,0,1,88.1,38.651,36.289,36.289,0,0,1,77.166,35q-4.023-2.3-4.023-5V23.358q4.648,3.281,12.7,4.961a84.637,84.637,0,0,0,17.3,1.68Zm0,30a84.637,84.637,0,0,0,17.3-1.68q8.047-1.68,12.7-4.961V60q0,2.7-4.023,5a36.288,36.288,0,0,1-10.937,3.652A78.678,78.678,0,0,1,103.143,70,78.678,78.678,0,0,1,88.1,68.651,36.289,36.289,0,0,1,77.166,65q-4.023-2.3-4.023-5V53.358q4.648,3.281,12.7,4.961a84.637,84.637,0,0,0,17.3,1.68Zm0-15a84.638,84.638,0,0,0,17.3-1.68q8.047-1.68,12.7-4.961V45q0,2.7-4.023,5a36.288,36.288,0,0,1-10.937,3.652A78.677,78.677,0,0,1,103.143,55,78.678,78.678,0,0,1,88.1,53.651,36.289,36.289,0,0,1,77.166,50q-4.023-2.3-4.023-5V38.358q4.648,3.281,12.7,4.961a84.637,84.637,0,0,0,17.3,1.68Zm0-45a78.678,78.678,0,0,1,15.039,1.348A36.289,36.289,0,0,1,129.119,5q4.023,2.3,4.023,5v5q0,2.7-4.023,5a36.289,36.289,0,0,1-10.937,3.652A78.678,78.678,0,0,1,103.143,25,78.678,78.678,0,0,1,88.1,23.651,36.288,36.288,0,0,1,77.166,20q-4.023-2.3-4.023-5V10q0-2.7,4.023-5A36.288,36.288,0,0,1,88.1,1.347,78.678,78.678,0,0,1,103.143,0Z" transform="translate(-73.143 0.001)"/></svg>