<?xml version="1.0" encoding="UTF-8"?>
<svg width="86px" height="86px" viewBox="0 0 86 86" version="1.1" xmlns="http://www.w3.org/2000/svg" xmlns:xlink="http://www.w3.org/1999/xlink">
    <!-- Generator: Sketch 46.2 (44496) - http://www.bohemiancoding.com/sketch -->
    <title>group of people</title>
    <desc>Created with Sketch.</desc>
    <defs>
        <filter x="-9.0%" y="-6.4%" width="117.9%" height="117.9%" filterUnits="objectBoundingBox" id="filter-1">
            <feOffset dx="0" dy="2" in="SourceAlpha" result="shadowOffsetOuter1"></feOffset>
            <feGaussianBlur stdDeviation="2" in="shadowOffsetOuter1" result="shadowBlurOuter1"></feGaussianBlur>
            <feColorMatrix values="0 0 0 0 0   0 0 0 0 0   0 0 0 0 0  0 0 0 0.5 0" type="matrix" in="shadowBlurOuter1" result="shadowMatrixOuter1"></feColorMatrix>
            <feMerge>
                <feMergeNode in="shadowMatrixOuter1"></feMergeNode>
                <feMergeNode in="SourceGraphic"></feMergeNode>
            </feMerge>
        </filter>
        <linearGradient x1="50%" y1="0%" x2="50%" y2="100%" id="linearGradient-2">
            <stop stop-color="#FFFFFF" offset="0%"></stop>
            <stop stop-color="#ECECEC" offset="100%"></stop>
        </linearGradient>
        <path d="M38.9178286,77.2245669 C60.0243854,77.2245669 77.1346297,60.09411 77.1346297,38.9626205 C77.1346297,17.8311311 60.0243854,0.700674202 38.9178286,0.700674202 C17.8112721,0.700674202 0.701027383,17.8311311 0.701027383,38.9626205 C0.701027383,60.09411 17.8112721,77.2245669 38.9178286,77.2245669 Z" id="path-3"></path>
    </defs>
    <g id="Page-1" stroke="none" stroke-width="1" fill="none" fill-rule="evenodd">
        <g id="demo.lizard.net/management/alarms/-[1-level-in]" transform="translate(-671.000000, -240.000000)">
            <g id="cards" transform="translate(235.000000, 195.000000)">
                <g id="card-alarm-groups" transform="translate(338.000000, 0.000000)">
                    <g id="group-of-people" filter="url(#filter-1)" transform="translate(102.000000, 47.000000)">
                        <g id="people">
                            <g id="user">
                                <mask id="mask-4" fill="white">
                                    <use xlink:href="#path-3"></use>
                                </mask>
                                <use id="Mask" fill="url(#linearGradient-2)" fill-rule="nonzero" xlink:href="#path-3"></use>
                                <g mask="url(#mask-4)" id="Group">
                                    <g transform="translate(9.000000, 8.000000)">
                                        <g>
                                            <path d="M55.4131034,44.8860741 L45.5317241,39.9331852 C44.2551724,39.2933333 43.4482759,37.9845926 43.4482759,36.5534815 L43.4482759,32.6666667 C43.7255172,32.3503704 44.0441379,31.9428148 44.3834483,31.4616296 C45.7303448,29.5555556 46.7482759,27.4576296 47.4548276,25.256 C48.722069,24.865037 49.6551724,23.6911111 49.6551724,22.2962963 L49.6551724,18.1481481 C49.6551724,17.2355556 49.2506897,16.4194074 48.6206897,15.849037 L48.6206897,9.85185185 C48.6206897,9.85185185 49.8486207,0.518518519 37.2413793,0.518518519 C24.6331034,0.518518519 25.862069,9.85185185 25.862069,9.85185185 L25.862069,15.849037 C25.232069,16.4194074 24.8275862,17.2355556 24.8275862,18.1481481 L24.8275862,22.2962963 C24.8275862,23.3893333 25.4006897,24.3506667 26.2582759,24.9065185 C27.2917241,29.4197037 30,32.6666667 30,32.6666667 L30,36.457037 C30,37.8394074 29.2468966,39.1118519 28.0355172,39.7734815 L18.8068966,44.8207407 C16.1410345,46.2777778 14.4827586,49.0788148 14.4827586,52.1225185 L14.4827586,85.4814815 L60,85.4814815 L60,52.3257778 C60,49.1752593 58.2237931,46.2954074 55.4131034,44.8860741 Z" id="Shape" fill="#8697CB" fill-rule="nonzero"></path>
                                            <path d="M18.8068966,44.8207407 L24.957931,41.4576296 C24.9344828,41.4348148 25.9603448,40.8737778 28.0355172,39.7745185 C29.2468966,39.1118519 30,37.8404444 30,36.457037 L30,32.6666667 C30,32.6666667 28.9013793,31.3444444 27.8358621,29.2205926 C27.6951724,28.9395556 27.5575862,28.6460741 27.422069,28.3422222 C27.2286207,27.9025185 27.0941379,27.5779259 26.9668966,27.2377778 C26.8313793,26.8696296 26.7268966,26.5595556 26.6265517,26.2411852 C26.5996552,26.1540741 26.5727586,26.068 26.5468966,25.9808889 C26.4424138,25.6303704 26.3441379,25.2736296 26.2593103,24.9044444 C25.4006897,24.3506667 24.8275862,23.3893333 24.8275862,22.2962963 L24.8275862,18.1481481 C24.8275862,17.2355556 25.232069,16.4194074 25.862069,15.849037 L25.862069,9.99185185 C24.4003448,8.85525926 22.1348276,7.77777778 18.6206897,7.77777778 C8.72793103,7.77777778 8.27586207,16.0740741 8.27586207,16.0740741 L8.27586207,21.2540741 C7.73172414,21.7466667 7.24137931,22.4508148 7.24137931,23.238963 L7.24137931,26.8219259 C7.24137931,27.7666667 7.73689655,28.5962963 8.47655172,29.0764444 C9.36931034,32.9736296 12.3662069,35.7788148 12.3662069,35.7788148 L12.3662069,39.0527407 C12.3662069,40.2463704 11.7155172,41.3456296 10.6696552,41.917037 L3.73448276,46.2746667 C1.43275862,47.5336296 0,49.952 0,52.5808889 L0,75.4814815 L14.4827586,75.4814815 L14.4827586,52.1225185 C14.4827586,49.0788148 16.1410345,46.2777778 18.8068966,44.8207407 Z" id="Shape" fill="#556080" fill-rule="nonzero"></path>
                                        </g>
                                        <g transform="translate(38.000000, 35.000000)">
                                            <ellipse id="Oval" fill="#76C9B0" fill-rule="nonzero" cx="11.5" cy="12" rx="11.5" ry="11.4782609"></ellipse>
                                            <path d="M17.7727273,10.9565217 L12.5454545,10.9565217 L12.5454545,5.73913043 C12.5454545,5.16313043 12.0781364,4.69565217 11.5,4.69565217 C10.9218636,4.69565217 10.4545455,5.16313043 10.4545455,5.73913043 L10.4545455,12 C10.4545455,12.576 10.9218636,13.0434783 11.5,13.0434783 L17.7727273,13.0434783 C18.3508636,13.0434783 18.8181818,12.576 18.8181818,12 C18.8181818,11.424 18.3508636,10.9565217 17.7727273,10.9565217 Z" id="Shape" fill="#FFFFFF" fill-rule="nonzero"></path>
                                        </g>
                                    </g>
                                </g>
                            </g>
                        </g>
                    </g>
                </g>
            </g>
        </g>
    </g>
</svg>