<svg xmlns="http://www.w3.org/2000/svg" width="56" height="56" viewBox="0 0 56 56">
  <g id="key" transform="translate(-2 -2)">
    <path id="Path_697" data-name="Path 697" d="M51.655,50.244,58,56.581l-.789-4.6a1.539,1.539,0,0,0-.437-.948L35.923,30.18a1,1,0,0,1,0-1.413l2.851-2.858a1.275,1.275,0,0,0-.782-2.169l-5.216-.5a1,1,0,0,1-.278-1.923l2.86-1.15a9.4,9.4,0,0,0,.093-1.442c0-.5-.022-.975-.065-1.411L32.5,16.144a1,1,0,0,1-.6-.685,13.638,13.638,0,0,0-1.547-3.736,1,1,0,0,1-.063-.91l1.21-2.83a10.319,10.319,0,0,0-.957-1.089c-.33-.33-.689-.651-1.047-.953L26.644,7.156a.989.989,0,0,1-.908-.061A13.472,13.472,0,0,0,22,5.559a1,1,0,0,1-.691-.6L20.162,2.1a11.788,11.788,0,0,0-2.851-.027L16.139,4.957a1,1,0,0,1-.693.6,13.213,13.213,0,0,0-3.73,1.535,1,1,0,0,1-.91.062L7.976,5.945A10.619,10.619,0,0,0,6.9,6.9c-.353.353-.666.7-.956,1.048L7.15,10.813a1,1,0,0,1-.063.91,13.2,13.2,0,0,0-1.535,3.728,1,1,0,0,1-.6.693l-2.86,1.14A9.939,9.939,0,0,0,2,18.725c0,.508.022.985.065,1.422l2.888,1.17a1,1,0,0,1,.6.691,13.472,13.472,0,0,0,1.536,3.733,1,1,0,0,1,.061.908l-1.21,2.82a10.814,10.814,0,0,0,.96,1.086c.331.324.68.654,1.048.955l2.862-1.216a.994.994,0,0,1,.91.063A13.683,13.683,0,0,0,15.453,31.9a1,1,0,0,1,.686.6l1.14,2.86a12.437,12.437,0,0,0,2.863.025l1.17-2.888a1,1,0,0,1,1.923.278l.5,5.219a1.254,1.254,0,0,0,.844,1.077,1.238,1.238,0,0,0,1.324-.3l2.861-2.851a1,1,0,0,1,1.414,0l3.3,3.31a2.213,2.213,0,0,1,.621,1.138l.622,3.1a.262.262,0,0,0,.259.206h3.07a2.268,2.268,0,0,1,2.261,2.27v1.79a.284.284,0,0,0,.076.182l1.95,1.95a.256.256,0,0,0,.183.077h2.02a2.273,2.273,0,0,1,2.22,1.823l.62,3.079a.351.351,0,0,0,.088.162l2.918,2.907A.257.257,0,0,0,50.57,58l6.005-.009-6.334-6.333a1,1,0,1,1,1.414-1.414ZM16,22a1,1,0,0,1-2,0V21H12v1a1,1,0,0,1-2,0V18a3,3,0,1,1,6,0Zm5-1H20v1a1,1,0,0,1-2,0V16a1,1,0,0,1,1-1h2a3,3,0,0,1,0,6Zm7,1a1,1,0,0,1-2,0V16a1,1,0,1,1,2,0ZM40.538,40.542a1,1,0,0,1-1.414,0l-6.787-6.786a1,1,0,1,1,1.414-1.414l6.787,6.786A1,1,0,0,1,40.538,40.542Zm6.639,6.639a1,1,0,0,1-1.414,0L43.6,45.017A1,1,0,1,1,45.013,43.6l2.164,2.164a1,1,0,0,1,0,1.417Z" fill="teal"/>
    <path id="Path_698" data-name="Path 698" d="M13,17a1,1,0,0,0-1,1v1h2V18A1,1,0,0,0,13,17Z" fill="teal"/>
    <path id="Path_699" data-name="Path 699" d="M21,17H20v2h1a1,1,0,0,0,0-2Z" fill="teal"/>
  </g>
</svg>