<svg xmlns="http://www.w3.org/2000/svg" width="152" height="147" viewBox="0 0 88 85">
  <defs>
    <style>
      .a{
        fill:rgba(134,234,184,0.32);
        stroke:rgba(0,128,128,0.76);
        stroke-width:2px;
      }
    </style>
  </defs>
  <g transform="translate(1 1)">
    <g transform="translate(0)">
      <path
        class="a"
        d="M0,222.955a4.112,4.112,0,0,0,4.07,4.082H81.634a4.112,4.112,0,0,0,4.07-4.082V216.5H0Zm0,0"
        transform="translate(0.001 -165.92)"
      />
      <path
        class="a"
        d="M81.635.5H4.071A4.136,4.136,0,0,0,0,4.611V47.8h85.7V4.611A4.136,4.136,0,0,0,81.635.5Zm0,0"
        transform="translate(0 -0.5)"
      />
      <path
        class="a"
        d="M121.213,289.316H106.5a10.235,10.235,0,0,1-2.625-6.94V275.5H87.949v6.876a10.235,10.235,0,0,1-2.625,6.94h-13.7a2.342,2.342,0,1,0,0,4.683h49.589a2.342,2.342,0,1,0,0-4.683Zm0,0" 
        transform="translate(-53.058 -211.104)"
      />
    </g>
    <g transform="translate(24 6)">
      <svg xmlns="http://www.w3.org/2000/svg" width="40" height="38" viewBox="0 0 242 228" fill="none">
        <path d="M222.261 130.018L241.138 109.812L187.926 61.376V5.176H156.948V32.886L120.944 0L0 108.253L18.387 128.978L37.034 112.14V153.121C38.553 153.581 40.022 154.15 41.421 154.81C45.578 156.579 50.214 157.738 55.051 157.738C59.957 157.738 64.524 156.649 68.681 154.81C72.908 152.831 77.675 151.672 82.721 151.672C87.757 151.672 92.534 152.831 96.761 154.81C100.898 156.569 105.504 157.728 110.321 157.738C114.667 157.728 119.544 156.639 123.681 154.81C127.898 152.761 132.405 151.672 137.371 151.672C137.491 151.672 137.601 151.682 137.711 151.682C137.821 151.682 137.941 151.672 138.051 151.672C143.027 151.672 147.794 152.831 152.021 154.81C156.088 156.539 160.604 157.678 165.321 157.728C170.098 157.678 174.545 156.599 178.602 154.81C182.829 152.831 187.596 151.672 192.642 151.672C196.609 151.672 200.407 152.392 203.914 153.661V113.18L222.261 130.018Z" fill="#008080"/>
        <path d="M219.977 172.065C224.883 172.065 229.517 170.975 233.606 169.135C235.937 168.045 238.439 167.215 241.056 166.679V187.109C238.537 187.646 236.128 188.457 233.877 189.51C229.72 191.418 225.154 192.44 220.248 192.44C215.341 192.44 210.707 191.35 206.619 189.51C202.257 187.533 197.487 186.375 192.581 186.375C187.538 186.375 182.768 187.534 178.543 189.51C174.581 191.328 170.184 192.331 165.591 192.422V192.44C165.479 192.44 165.37 192.432 165.259 192.431C165.144 192.432 165.03 192.44 164.914 192.44C160.008 192.44 155.442 191.35 151.285 189.51C147.09 187.578 142.438 186.436 137.649 186.385C132.734 186.437 128.083 187.579 123.955 189.51C119.798 191.418 115.232 192.44 110.326 192.44C110.257 192.44 110.188 192.434 110.119 192.434C110.054 192.435 109.987 192.44 109.922 192.44V192.429C105.167 192.371 100.673 191.299 96.698 189.51C92.336 187.533 87.566 186.375 82.66 186.375C77.617 186.375 72.847 187.534 68.622 189.51C64.465 191.418 59.831 192.44 54.993 192.44C50.087 192.44 45.521 191.35 41.364 189.51C37.07 187.533 32.3 186.375 27.394 186.375C22.351 186.375 17.649 187.534 13.424 189.51C9.268 191.418 4.361 192.44 0 192.44V172.065C4.361 172.065 9.267 170.975 13.424 169.135C17.649 167.09 22.147 166 27.121 166C32.096 166 36.866 167.159 41.091 169.135C45.248 170.907 49.882 172.065 54.72 172.065C59.627 172.065 64.192 170.975 68.349 169.135C72.574 167.158 77.344 166 82.387 166C87.43 166 92.2 167.159 96.425 169.135C100.563 170.898 105.174 172.052 109.988 172.063C114.333 172.052 119.21 170.966 123.346 169.135C127.571 167.09 132.069 166 137.043 166C137.156 166 137.267 166.009 137.38 166.01C137.494 166.009 137.607 166 137.721 166C142.696 166 147.466 167.159 151.691 169.135C155.754 170.867 160.274 172.005 164.994 172.056C169.766 172.005 174.215 170.931 178.272 169.135C182.497 167.158 187.267 166 192.31 166C197.353 166 202.123 167.159 206.348 169.135C210.505 170.907 215.139 172.065 219.977 172.065Z" fill="#55BFA2"/>
        <path d="M219.977 207.065C224.883 207.065 229.517 205.975 233.606 204.135C235.937 203.045 238.439 202.215 241.056 201.679V222.109C238.537 222.646 236.128 223.457 233.877 224.51C229.72 226.418 225.154 227.44 220.248 227.44C215.341 227.44 210.707 226.35 206.619 224.51C202.257 222.533 197.487 221.375 192.581 221.375C187.538 221.375 182.768 222.534 178.543 224.51C174.581 226.328 170.184 227.331 165.591 227.422V227.44C165.479 227.44 165.37 227.432 165.259 227.431C165.144 227.432 165.03 227.44 164.914 227.44C160.008 227.44 155.442 226.35 151.285 224.51C147.09 222.578 142.438 221.436 137.649 221.385C132.734 221.437 128.083 222.579 123.955 224.51C119.798 226.418 115.232 227.44 110.326 227.44C110.257 227.44 110.188 227.434 110.119 227.434C110.054 227.435 109.987 227.44 109.922 227.44V227.429C105.167 227.371 100.673 226.299 96.698 224.51C92.336 222.533 87.566 221.375 82.66 221.375C77.617 221.375 72.847 222.534 68.622 224.51C64.465 226.418 59.831 227.44 54.993 227.44C50.087 227.44 45.521 226.35 41.364 224.51C37.07 222.533 32.3 221.375 27.394 221.375C22.351 221.375 17.649 222.534 13.424 224.51C9.268 226.418 4.361 227.44 0 227.44V207.065C4.361 207.065 9.267 205.975 13.424 204.135C17.649 202.09 22.147 201 27.121 201C32.096 201 36.866 202.159 41.091 204.135C45.248 205.907 49.882 207.065 54.72 207.065C59.627 207.065 64.192 205.975 68.349 204.135C72.574 202.158 77.344 201 82.387 201C87.43 201 92.2 202.159 96.425 204.135C100.563 205.898 105.174 207.052 109.988 207.063C114.333 207.052 119.21 205.966 123.346 204.135C127.571 202.09 132.069 201 137.043 201C137.156 201 137.267 201.009 137.38 201.01C137.494 201.009 137.607 201 137.721 201C142.696 201 147.466 202.159 151.691 204.135C155.754 205.867 160.274 207.005 164.994 207.056C169.766 207.005 174.215 205.931 178.272 204.135C182.497 202.158 187.267 201 192.31 201C197.353 201 202.123 202.159 206.348 204.135C210.505 205.907 215.139 207.065 219.977 207.065Z" fill="#55BFA2"/>
      </svg>
    </g>
  </g>
</svg>