<svg xmlns="http://www.w3.org/2000/svg" width="76.274" height="59.206" viewBox="0 0 76.274 59.206"><defs><style>.a{fill:#f7e162;}.a,.b,.c,.d,.e,.f,.g,.h,.i,.j,.k,.l,.m,.n,.o{stroke:#feffff;stroke-width:0.17px;fill-rule:evenodd;}.b{fill:#f3d466;}.c{fill:#eec86b;}.d{fill:#eabe6f;}.e{fill:#e6b473;}.f{fill:#e2ac77;}.g{fill:#dea57b;}.h{fill:#56a2a0;}.i{fill:#5d95a0;}.j{fill:#65899e;}.k{fill:#6d829b;}.l{fill:#757e98;}.m{fill:#7c7e95;}.n{fill:#868493;}.o{fill:#5479c0;}</style></defs><g transform="translate(-32.548 -52.975)"><path class="a" d="M39.765,93.96,32.674,97.1l5.481,8.446,7.091-3.137Z" transform="translate(0 -27.253)"/><path class="a" d="M56.2,119.289l-7.091,3.138,5.482,8.446,7.092-3.138L56.2,119.289Z" transform="translate(-10.957 -44.137)"/><path class="a" d="M72.642,144.62l-7.091,3.137,5.481,8.446,7.091-3.137Z" transform="translate(-21.915 -61.021)"/><path class="a" d="M89.075,169.95l-7.091,3.137,5.481,8.446,7.091-3.137Z" transform="translate(-32.869 -77.906)"/><path class="a" d="M105.518,195.28l-7.091,3.137,5.482,8.446L111,203.726l-5.481-8.446Z" transform="translate(-43.829 -94.79)"/><path class="a" d="M61.032,84.551l-7.091,3.137,5.482,8.446L66.514,93l-5.481-8.446Z" transform="translate(-14.176 -20.982)"/><path class="a" d="M77.473,109.881l-7.093,3.137,5.481,8.446,7.091-3.137Z" transform="translate(-25.134 -37.866)"/><path class="b" d="M93.909,135.21l-7.091,3.137,5.481,8.446,7.09-3.138-5.482-8.446Z" transform="translate(-36.09 -54.749)"/><path class="c" d="M110.347,160.541l-7.091,3.137,5.482,8.446,7.091-3.137Z" transform="translate(-47.047 -71.634)"/><path class="a" d="M126.789,185.871l-7.089,3.137,5.481,8.446,7.091-3.137Z" transform="translate(-58.008 -88.518)"/><path class="a" d="M82.3,75.143,75.208,78.28l5.482,8.446,7.091-3.137Z" transform="translate(-28.352 -14.711)"/><path class="b" d="M98.738,100.473l-7.091,3.137,5.481,8.446,7.091-3.137Z" transform="translate(-39.309 -31.595)"/><path class="c" d="M115.175,125.8l-7.091,3.137,5.482,8.446,7.091-3.137Z" transform="translate(-50.266 -48.477)"/><path class="d" d="M131.615,151.133l-7.091,3.137,5.481,8.446,7.091-3.137Z" transform="translate(-61.224 -65.363)"/><path class="a" d="M148.053,176.463l-7.091,3.137,5.481,8.446,7.091-3.137-5.482-8.446Z" transform="translate(-72.181 -82.247)"/><path class="b" d="M103.567,65.734l-7.091,3.137,5.481,8.446,7.091-3.137-5.482-8.446Z" transform="translate(-42.528 -8.439)"/><path class="c" d="M120.005,91.064,112.914,94.2l5.482,8.446,7.091-3.137-5.481-8.446Z" transform="translate(-53.485 -25.323)"/><path class="d" d="M136.444,116.394l-7.091,3.136,5.481,8.446,7.091-3.137Z" transform="translate(-64.443 -42.207)"/><path class="e" d="M152.882,141.724l-7.091,3.137,5.481,8.446,7.091-3.137-5.482-8.446Z" transform="translate(-75.4 -59.091)"/><path class="a" d="M169.32,167.054l-7.091,3.137,5.482,8.446L174.8,175.5l-5.481-8.446Z" transform="translate(-86.357 -75.975)"/><path class="a" d="M124.834,56.326l-7.091,3.137,5.481,8.446,7.091-3.137Z" transform="translate(-56.704 -2.168)"/><path class="d" d="M141.275,81.656l-7.091,3.137,5.482,8.446,7.091-3.137-5.481-8.446Z" transform="translate(-67.662 -19.052)"/><path class="e" d="M157.711,106.986l-7.091,3.137,5.481,8.446,7.091-3.137Z" transform="translate(-78.619 -35.936)"/><path class="f" d="M174.149,132.316l-7.091,3.137,5.482,8.446,7.091-3.137Z" transform="translate(-89.576 -52.82)"/><path class="g" d="M190.59,157.646l-7.09,3.137,5.481,8.446,7.091-3.137Z" transform="translate(-100.535 -69.704)"/><path class="h" d="M77.142,74.929,68.9,76.751l3.216,8.642,8.242-1.822Z" transform="translate(-24.147 -14.568)"/><path class="h" d="M86.793,100.848l-8.242,1.821,3.216,8.642,8.242-1.821Z" transform="translate(-30.579 -31.844)"/><path class="h" d="M96.434,126.766l-8.242,1.822,3.216,8.642,8.242-1.822Z" transform="translate(-37.006 -49.121)"/><path class="h" d="M106.079,152.685l-8.242,1.823,3.216,8.642,8.242-1.822Z" transform="translate(-43.435 -66.397)"/><path class="h" d="M115.725,178.6l-8.242,1.822,3.216,8.642,8.242-1.822Z" transform="translate(-49.865 -83.672)"/><path class="h" d="M101.861,69.465l-8.242,1.822,3.216,8.642,8.243-1.82-3.216-8.642Z" transform="translate(-40.624 -10.926)"/><path class="h" d="M111.507,95.384l-8.242,1.824,3.216,8.642,8.242-1.822Z" transform="translate(-47.054 -28.202)"/><path class="i" d="M121.152,121.3l-8.242,1.821,3.216,8.642,8.242-1.821Z" transform="translate(-53.483 -45.477)"/><path class="j" d="M130.793,147.222l-8.242,1.821,3.216,8.642,8.242-1.822Z" transform="translate(-59.909 -62.756)"/><path class="k" d="M140.442,173.141l-8.242,1.821,3.216,8.642,8.242-1.822Z" transform="translate(-66.341 -80.032)"/><path class="h" d="M126.579,64l-8.242,1.822,3.216,8.642,8.242-1.822Z" transform="translate(-57.1 -7.283)"/><path class="i" d="M136.225,89.92l-8.242,1.822,3.216,8.642,8.242-1.822Z" transform="translate(-63.53 -24.56)"/><path class="j" d="M145.87,115.839l-8.242,1.822,3.216,8.642,8.242-1.822Z" transform="translate(-69.959 -41.837)"/><path class="k" d="M155.515,141.758l-8.242,1.822,3.216,8.642,8.242-1.822Z" transform="translate(-76.388 -59.114)"/><path class="l" d="M165.161,167.677l-8.242,1.822,3.216,8.642,8.242-1.821Z" transform="translate(-82.818 -76.39)"/><path class="h" d="M151.293,58.538l-8.242,1.821L146.267,69l8.242-1.821Z" transform="translate(-73.574 -3.642)"/><path class="j" d="M160.942,84.457,152.7,86.278l3.216,8.642,8.242-1.822Z" transform="translate(-80.005 -20.919)"/><path class="k" d="M170.593,110.375l-8.242,1.822,3.216,8.642,8.242-1.822Z" transform="translate(-86.438 -38.195)"/><path class="l" d="M180.233,136.294l-8.242,1.822,3.216,8.642,8.242-1.822Z" transform="translate(-92.864 -55.472)"/><path class="m" d="M189.879,162.213l-8.242,1.822,3.216,8.642,8.242-1.822Z" transform="translate(-99.293 -72.748)"/><path class="h" d="M176.015,53.074,167.773,54.9l3.216,8.642,8.242-1.822Z" transform="translate(-90.052 0)"/><path class="k" d="M185.661,78.993l-8.242,1.82,3.216,8.642,8.242-1.821Z" transform="translate(-96.482 -17.277)"/><path class="l" d="M195.306,104.912l-8.242,1.821,3.216,8.642,8.242-1.822Z" transform="translate(-102.911 -34.553)"/><path class="m" d="M204.951,130.83l-8.242,1.822,3.216,8.642,8.242-1.822Z" transform="translate(-109.34 -51.83)"/><path class="n" d="M214.593,156.749l-8.242,1.822,3.216,8.642,8.242-1.822Z" transform="translate(-115.768 -69.106)"/><path class="o" d="M118.36,67.236l-8.767.195,1.313,8.764,8.767-.2Z" transform="translate(-51.272 -9.44)"/><path class="o" d="M122.3,93.517l-8.767.2,1.313,8.764,8.768-.2Z" transform="translate(-53.897 -26.958)"/><path class="o" d="M126.236,119.8l-8.767.2,1.313,8.764,8.767-.2Z" transform="translate(-56.521 -44.477)"/><path class="o" d="M130.174,146.079l-8.767.195,1.313,8.764,8.768-.2-1.313-8.764Z" transform="translate(-59.146 -61.994)"/><path class="o" d="M134.11,172.361l-8.767.2,1.313,8.764,8.767-.195Z" transform="translate(-61.77 -79.512)"/><path class="o" d="M144.661,66.651l-8.768.2,1.313,8.764,8.768-.2Z" transform="translate(-68.802 -9.05)"/><path class="o" d="M148.594,92.932l-8.768.2,1.313,8.764,8.767-.195Z" transform="translate(-71.425 -26.568)"/><path class="o" d="M152.532,119.214l-8.768.195,1.313,8.764,8.768-.2Z" transform="translate(-74.049 -44.087)"/><path class="o" d="M156.468,145.5l-8.768.2,1.313,8.764,8.767-.2Z" transform="translate(-76.673 -61.605)"/><path class="o" d="M160.406,171.777l-8.768.195,1.313,8.764,8.767-.2Z" transform="translate(-79.297 -79.123)"/><path class="o" d="M170.952,66.066l-8.767.2,1.313,8.764,8.767-.195Z" transform="translate(-86.327 -8.66)"/><path class="o" d="M174.89,92.348l-8.767.195,1.313,8.764,8.767-.2Z" transform="translate(-88.952 -26.179)"/><path class="o" d="M178.827,118.629l-8.768.2,1.312,8.764,8.768-.195Z" transform="translate(-91.576 -43.697)"/><path class="o" d="M182.761,144.91l-8.768.2,1.313,8.764,8.767-.195Z" transform="translate(-94.198 -61.214)"/><path class="o" d="M186.7,171.191l-8.767.195,1.313,8.764,8.767-.2-1.313-8.764Z" transform="translate(-96.824 -78.733)"/><path class="o" d="M197.247,65.481l-8.767.2,1.313,8.764,8.767-.2Z" transform="translate(-103.854 -8.27)"/><path class="o" d="M201.184,91.763l-8.767.2,1.313,8.764,8.767-.2Z" transform="translate(-106.479 -25.789)"/><path class="o" d="M205.121,118.044l-8.767.2L197.666,127l8.767-.2-1.313-8.764Z" transform="translate(-109.103 -43.307)"/><path class="o" d="M209.061,144.325l-8.767.195,1.313,8.764,8.768-.2-1.313-8.764Z" transform="translate(-111.729 -60.825)"/><path class="o" d="M212.994,170.607l-8.767.2,1.313,8.764,8.767-.195Z" transform="translate(-114.351 -78.343)"/><path class="o" d="M223.541,64.9l-8.768.195,1.313,8.764,8.768-.2Z" transform="translate(-121.381 -7.883)"/><path class="o" d="M227.479,91.178l-8.767.2,1.313,8.764,8.767-.195Z" transform="translate(-124.006 -25.399)"/><path class="o" d="M231.416,117.46l-8.767.195,1.313,8.764,8.767-.2Z" transform="translate(-126.63 -42.918)"/><path class="o" d="M235.352,143.741l-8.767.2L227.9,152.7l8.767-.2Z" transform="translate(-129.254 -60.436)"/><path class="o" d="M239.29,170.022l-8.767.2,1.313,8.764,8.767-.2Z" transform="translate(-131.879 -77.954)"/></g></svg>