<svg xmlns="http://www.w3.org/2000/svg" width="64.571" height="64.571" viewBox="0 0 64.571 64.571"><defs><style>.a{fill:#fff;}</style></defs><path class="a" d="M143.588,128a15.588,15.588,0,1,0,15.588,15.588A15.606,15.606,0,0,0,143.588,128Zm0,29.22a13.632,13.632,0,1,1,13.632-13.632A13.647,13.647,0,0,1,143.588,157.22Z" transform="translate(-111.303 -111.303)"/><path class="a" d="M61.506,25.046H57.289A25.864,25.864,0,0,0,55.08,19.73l2.987-2.987a3.066,3.066,0,0,0,0-4.335l-5.9-5.9a3.066,3.066,0,0,0-4.335,0L44.841,9.491a25.871,25.871,0,0,0-5.316-2.209V3.066A3.069,3.069,0,0,0,36.46,0H28.111a3.069,3.069,0,0,0-3.066,3.066V7.282A25.864,25.864,0,0,0,19.73,9.491L16.743,6.5a3.065,3.065,0,0,0-4.335,0l-5.9,5.9a3.065,3.065,0,0,0,0,4.335L9.491,19.73a25.871,25.871,0,0,0-2.209,5.316H3.066A3.069,3.069,0,0,0,0,28.111V36.46a3.069,3.069,0,0,0,3.066,3.066H7.282a25.864,25.864,0,0,0,2.209,5.316L6.5,47.828a3.065,3.065,0,0,0,0,4.335l5.9,5.9a3.065,3.065,0,0,0,4.335,0L19.73,55.08a25.871,25.871,0,0,0,5.316,2.209v4.217a3.069,3.069,0,0,0,3.066,3.066H36.46a3.069,3.069,0,0,0,3.066-3.066V57.289a25.864,25.864,0,0,0,5.316-2.209l2.987,2.987a3.066,3.066,0,0,0,4.335,0l5.9-5.9a3.065,3.065,0,0,0,0-4.335L55.08,44.841a25.871,25.871,0,0,0,2.209-5.316h4.217a3.069,3.069,0,0,0,3.066-3.066V28.111A3.069,3.069,0,0,0,61.506,25.046ZM62.615,36.46a1.11,1.11,0,0,1-1.109,1.109H56.542a.978.978,0,0,0-.947.734,23.922,23.922,0,0,1-2.578,6.2.978.978,0,0,0,.151,1.189l3.515,3.515a1.11,1.11,0,0,1,0,1.568l-5.9,5.9a1.11,1.11,0,0,1-1.568,0L45.7,53.168a.978.978,0,0,0-1.189-.151,23.922,23.922,0,0,1-6.2,2.578.978.978,0,0,0-.734.947v4.964a1.11,1.11,0,0,1-1.109,1.109H28.111A1.11,1.11,0,0,1,27,61.506V56.542a.978.978,0,0,0-.734-.947,23.922,23.922,0,0,1-6.2-2.578.978.978,0,0,0-1.19.151L15.36,56.683a1.11,1.11,0,0,1-1.568,0l-5.9-5.9a1.11,1.11,0,0,1,0-1.568L11.4,45.7a.978.978,0,0,0,.151-1.189,23.922,23.922,0,0,1-2.578-6.2.978.978,0,0,0-.947-.734H3.066A1.11,1.11,0,0,1,1.957,36.46V28.111A1.11,1.11,0,0,1,3.066,27H8.029a.978.978,0,0,0,.947-.734,23.922,23.922,0,0,1,2.578-6.2.978.978,0,0,0-.151-1.189L7.888,15.36a1.109,1.109,0,0,1,0-1.568l5.9-5.9a1.11,1.11,0,0,1,1.568,0L18.875,11.4a.978.978,0,0,0,1.189.151,23.922,23.922,0,0,1,6.2-2.578A.978.978,0,0,0,27,8.029V3.066a1.11,1.11,0,0,1,1.109-1.109H36.46a1.11,1.11,0,0,1,1.109,1.109V8.029a.978.978,0,0,0,.734.947,23.922,23.922,0,0,1,6.2,2.578A.978.978,0,0,0,45.7,11.4l3.515-3.515a1.11,1.11,0,0,1,1.568,0l5.9,5.9a1.109,1.109,0,0,1,0,1.568l-3.515,3.515a.978.978,0,0,0-.151,1.189,23.922,23.922,0,0,1,2.578,6.2.978.978,0,0,0,.947.734h4.964a1.11,1.11,0,0,1,1.109,1.109Z"/></svg>