<svg xmlns="http://www.w3.org/2000/svg" width="27.839" height="27.84" viewBox="0 0 27.839 27.84"><defs><style>.a{fill:#003d7a;}</style></defs><g transform="matrix(0.883, -0.469, 0.469, 0.883, 0, 9.664)"><g transform="translate(0 0)"><path class="a" d="M19.242,8.055H17.567a7.574,7.574,0,0,0-.548-1.324L18.2,5.548a1.345,1.345,0,0,0,0-1.9L16.937,2.382a1.376,1.376,0,0,0-1.9,0L13.854,3.565a7.594,7.594,0,0,0-1.324-.548V1.342A1.344,1.344,0,0,0,11.187,0H9.4A1.344,1.344,0,0,0,8.055,1.342V3.018a7.608,7.608,0,0,0-1.324.548L5.547,2.382a1.345,1.345,0,0,0-1.9,0L2.381,3.648a1.345,1.345,0,0,0,0,1.9L3.565,6.732a7.594,7.594,0,0,0-.548,1.324H1.342A1.344,1.344,0,0,0,0,9.4v1.79A1.344,1.344,0,0,0,1.342,12.53H3.018a7.608,7.608,0,0,0,.548,1.324L2.382,15.038a1.345,1.345,0,0,0,0,1.9L3.648,18.2a1.345,1.345,0,0,0,1.9,0L6.732,17.02a7.593,7.593,0,0,0,1.324.548v1.675A1.344,1.344,0,0,0,9.4,20.585h1.79a1.344,1.344,0,0,0,1.342-1.342V17.567a7.594,7.594,0,0,0,1.324-.548L15.038,18.2a1.377,1.377,0,0,0,1.9,0L18.2,16.937a1.344,1.344,0,0,0,0-1.9L17.02,13.854a7.594,7.594,0,0,0,.548-1.324h1.675a1.344,1.344,0,0,0,1.342-1.342V9.4A1.344,1.344,0,0,0,19.242,8.055Zm.447,3.132a.448.448,0,0,1-.447.447H17.229a.448.448,0,0,0-.433.336,6.726,6.726,0,0,1-.718,1.733.448.448,0,0,0,.069.544l1.423,1.423a.449.449,0,0,1,0,.634L16.3,17.571a.461.461,0,0,1-.634,0l-1.423-1.423a.448.448,0,0,0-.544-.069,6.7,6.7,0,0,1-1.732.717.447.447,0,0,0-.335.433v2.014a.448.448,0,0,1-.447.447H9.4a.448.448,0,0,1-.447-.447V17.229a.448.448,0,0,0-.336-.433,6.71,6.71,0,0,1-1.733-.717.443.443,0,0,0-.227-.062.447.447,0,0,0-.317.131L4.914,17.57a.449.449,0,0,1-.634,0L3.014,16.3a.448.448,0,0,1,0-.634l1.423-1.423a.447.447,0,0,0,.069-.544,6.719,6.719,0,0,1-.717-1.733.447.447,0,0,0-.433-.336H1.342a.448.448,0,0,1-.447-.447V9.4a.448.448,0,0,1,.447-.447H3.356a.448.448,0,0,0,.433-.336,6.71,6.71,0,0,1,.717-1.733.447.447,0,0,0-.069-.544L3.015,4.915a.449.449,0,0,1,0-.634L4.281,3.015a.448.448,0,0,1,.634,0L6.338,4.438a.446.446,0,0,0,.544.069,6.719,6.719,0,0,1,1.733-.717.448.448,0,0,0,.336-.433V1.342A.448.448,0,0,1,9.4.895h1.79a.448.448,0,0,1,.447.447V3.356a.448.448,0,0,0,.336.433,6.7,6.7,0,0,1,1.732.717.447.447,0,0,0,.544-.069L15.67,3.015a.459.459,0,0,1,.634,0L17.57,4.281a.449.449,0,0,1,0,.634L16.147,6.338a.448.448,0,0,0-.069.544A6.72,6.72,0,0,1,16.8,8.614a.447.447,0,0,0,.433.336h2.014a.448.448,0,0,1,.447.447Z"/></g><g transform="translate(6.265 6.265)"><path class="a" d="M4.027,0A4.027,4.027,0,1,0,8.055,4.027,4.032,4.032,0,0,0,4.027,0Zm0,7.16A3.132,3.132,0,1,1,7.16,4.027,3.136,3.136,0,0,1,4.027,7.16Z"/></g></g></svg>