<svg xmlns="http://www.w3.org/2000/svg" width="53.18" height="60.833" viewBox="0 0 53.18 60.833"><defs><style>.a{fill:#fff;}</style></defs><g transform="translate(-26.48)"><g transform="translate(26.48)"><path class="a" d="M73.88,20.81a20.81,20.81,0,1,0-41.619,0c-2.971.37-5.78,2.312-5.78,6.821V38.5c0,5.087,3.561,6.937,6.937,6.937h3.353a1.156,1.156,0,0,0,1.156-1.156V21.9a1.156,1.156,0,0,0-1.156-1.156h-2.2a18.5,18.5,0,1,1,36.995,0h-2.2A1.156,1.156,0,0,0,68.215,21.9V44.244A1.156,1.156,0,0,0,69.371,45.4h2.2c-.324,7.942-4.139,9.8-11.757,10.139v-.775A2.312,2.312,0,0,0,57.5,52.452H50.226a2.312,2.312,0,0,0-2.312,2.312v3.757a2.312,2.312,0,0,0,2.312,2.312h7.295a2.312,2.312,0,0,0,2.312-2.312v-.671C67.163,57.516,73.5,56,73.88,45.33c2.971-.37,5.78-2.312,5.78-6.821V27.642C79.66,23.11,76.862,21.18,73.88,20.81ZM35.613,22.972V43.088H33.359c-1.711,0-4.624-.6-4.624-4.624V27.6c0-3.989,2.879-4.624,4.624-4.624Zm21.908,33.8v1.757H50.226V54.776h7.295ZM77.348,38.5c0,3.989-2.879,4.624-4.624,4.624h-2.2V23.052h2.254c1.711,0,4.624.6,4.624,4.624Z" transform="translate(-26.48)"/></g></g></svg>