<?xml version="1.0" encoding="UTF-8" standalone="no"?>
<svg
   width="13.18"
   height="15.233"
   viewBox="0 0 13.18 15.233"
   version="1.1"
   id="svg12"
   sodipodi:docname="support_profile_dropdown.svg"
   inkscape:version="1.1 (ce6663b3b7, 2021-05-25)"
   xmlns:inkscape="http://www.inkscape.org/namespaces/inkscape"
   xmlns:sodipodi="http://sodipodi.sourceforge.net/DTD/sodipodi-0.dtd"
   xmlns="http://www.w3.org/2000/svg"
   xmlns:svg="http://www.w3.org/2000/svg">
  <sodipodi:namedview
     id="namedview14"
     pagecolor="#ffffff"
     bordercolor="#666666"
     borderopacity="1.0"
     inkscape:pageshadow="2"
     inkscape:pageopacity="0.0"
     inkscape:pagecheckerboard="0"
     showgrid="false"
     height="15.533px"
     inkscape:zoom="27.748097"
     inkscape:cx="9.9646473"
     inkscape:cy="9.0636846"
     inkscape:window-width="1848"
     inkscape:window-height="1016"
     inkscape:window-x="72"
     inkscape:window-y="27"
     inkscape:window-maximized="1"
     inkscape:current-layer="g10" />
  <defs
     id="defs4">
    <style
       id="style2">.a{fill:#fff;}</style>
  </defs>
  <g
     transform="matrix(0.24652555,0,0,0.24652555,-6.5272431,-0.1086931)"
     id="g10"
     style="fill:#2c3e50;fill-opacity:1;stroke:none">
    <g
       transform="translate(26.626797,0.93227282)"
       id="g8"
       style="fill:#2c3e50;fill-opacity:1;stroke:none">
      <path
         class="a"
         d="m 73.88,20.81 a 20.81,20.81 0 1 0 -41.619,0 c -2.971,0.37 -5.78,2.312 -5.78,6.821 V 38.5 c 0,5.087 3.561,6.937 6.937,6.937 h 3.353 a 1.156,1.156 0 0 0 1.156,-1.156 V 21.9 a 1.156,1.156 0 0 0 -1.156,-1.156 h -2.2 a 18.5,18.5 0 1 1 36.995,0 h -2.2 A 1.156,1.156 0 0 0 68.215,21.9 v 22.344 a 1.156,1.156 0 0 0 1.156,1.156 h 2.2 c -0.324,7.942 -4.139,9.8 -11.757,10.139 V 54.764 A 2.312,2.312 0 0 0 57.5,52.452 h -7.274 a 2.312,2.312 0 0 0 -2.312,2.312 v 3.757 a 2.312,2.312 0 0 0 2.312,2.312 h 7.295 a 2.312,2.312 0 0 0 2.312,-2.312 V 57.85 C 67.163,57.516 73.5,56 73.88,45.33 c 2.971,-0.37 5.78,-2.312 5.78,-6.821 V 27.642 c 0,-4.532 -2.798,-6.462 -5.78,-6.832 z m -38.267,2.162 v 20.116 h -2.254 c -1.711,0 -4.624,-0.6 -4.624,-4.624 V 27.6 c 0,-3.989 2.879,-4.624 4.624,-4.624 z m 21.908,33.8 v 1.757 h -7.295 v -3.753 h 7.295 z M 77.348,38.5 c 0,3.989 -2.879,4.624 -4.624,4.624 h -2.2 V 23.052 h 2.254 c 1.711,0 4.624,0.6 4.624,4.624 z"
         transform="translate(-26.48)"
         id="path6"
         style="fill:#2c3e50;fill-opacity:1;stroke:none" />
    </g>
  </g>
</svg>
