<?xml version="1.0" encoding="UTF-8"?>
<svg width="86px" height="86px" viewBox="0 0 86 86" version="1.1" xmlns="http://www.w3.org/2000/svg" xmlns:xlink="http://www.w3.org/1999/xlink">
    <!-- Generator: Sketch 46.2 (44496) - http://www.bohemiancoding.com/sketch -->
    <title>group of people</title>
    <desc>Created with Sketch.</desc>
    <defs>
        <filter x="-9.0%" y="-6.4%" width="117.9%" height="117.9%" filterUnits="objectBoundingBox" id="filter-1">
            <feOffset dx="0" dy="2" in="SourceAlpha" result="shadowOffsetOuter1"></feOffset>
            <feGaussianBlur stdDeviation="2" in="shadowOffsetOuter1" result="shadowBlurOuter1"></feGaussianBlur>
            <feColorMatrix values="0 0 0 0 0   0 0 0 0 0   0 0 0 0 0  0 0 0 0.5 0" type="matrix" in="shadowBlurOuter1" result="shadowMatrixOuter1"></feColorMatrix>
            <feMerge>
                <feMergeNode in="shadowMatrixOuter1"></feMergeNode>
                <feMergeNode in="SourceGraphic"></feMergeNode>
            </feMerge>
        </filter>
        <linearGradient x1="50%" y1="0%" x2="50%" y2="100%" id="linearGradient-2">
            <stop stop-color="#FFFFFF" offset="0%"></stop>
            <stop stop-color="#ECECEC" offset="100%"></stop>
        </linearGradient>
        <path d="M38.9178286,77.2245669 C60.0243854,77.2245669 77.1346297,60.09411 77.1346297,38.9626205 C77.1346297,17.8311311 60.0243854,0.700674202 38.9178286,0.700674202 C17.8112721,0.700674202 0.701027383,17.8311311 0.701027383,38.9626205 C0.701027383,60.09411 17.8112721,77.2245669 38.9178286,77.2245669 Z" id="path-3"></path>
    </defs>
    <g id="Page-1" stroke="none" stroke-width="1" fill="none" fill-rule="evenodd">
        <g id="demo.lizard.net/management/alarms/-[1-level-in]" transform="translate(-1011.000000, -240.000000)">
            <g id="cards" transform="translate(235.000000, 195.000000)">
                <g id="card-alarm-templates" transform="translate(678.000000, 0.000000)">
                    <g id="group-of-people" filter="url(#filter-1)" transform="translate(102.000000, 47.000000)">
                        <g id="people">
                            <g id="user">
                                <mask id="mask-4" fill="white">
                                    <use xlink:href="#path-3"></use>
                                </mask>
                                <use id="Mask" fill="url(#linearGradient-2)" fill-rule="nonzero" xlink:href="#path-3"></use>
                                <g id="file" mask="url(#mask-4)">
                                    <g transform="translate(9.000000, 4.000000)" id="Group">
                                        <g>
                                            <polygon id="Shape" fill="#EFEBDE" fill-rule="nonzero" points="60 18.5862069 41.3333333 0 0 0 0 77 60 77"></polygon>
                                            <g transform="translate(12.000000, 17.000000)" id="Shape" fill-rule="nonzero" fill="#D5D0BB">
                                                <path d="M1.33333333,13.5294118 L34.6666667,13.5294118 C35.4026667,13.5294118 36,12.9246471 36,12.1764706 C36,11.4282941 35.4026667,10.8235294 34.6666667,10.8235294 L1.33333333,10.8235294 C0.597333333,10.8235294 0,11.4282941 0,12.1764706 C0,12.9246471 0.597333333,13.5294118 1.33333333,13.5294118 Z"></path>
                                                <path d="M1.33333333,2.70588235 L14.6666667,2.70588235 C15.4026667,2.70588235 16,2.10111765 16,1.35294118 C16,0.604764706 15.4026667,0 14.6666667,0 L1.33333333,0 C0.597333333,0 0,0.604764706 0,1.35294118 C0,2.10111765 0.597333333,2.70588235 1.33333333,2.70588235 Z"></path>
                                                <path d="M34.6666667,21.6470588 L1.33333333,21.6470588 C0.597333333,21.6470588 0,22.2518235 0,23 C0,23.7481765 0.597333333,24.3529412 1.33333333,24.3529412 L34.6666667,24.3529412 C35.4026667,24.3529412 36,23.7481765 36,23 C36,22.2518235 35.4026667,21.6470588 34.6666667,21.6470588 Z"></path>
                                                <path d="M34.6666667,32.4705882 L1.33333333,32.4705882 C0.597333333,32.4705882 0,33.0753529 0,33.8235294 C0,34.5717059 0.597333333,35.1764706 1.33333333,35.1764706 L34.6666667,35.1764706 C35.4026667,35.1764706 36,34.5717059 36,33.8235294 C36,33.0753529 35.4026667,32.4705882 34.6666667,32.4705882 Z"></path>
                                                <path d="M34.6666667,43.2941176 L1.33333333,43.2941176 C0.597333333,43.2941176 0,43.8988824 0,44.6470588 C0,45.3952353 0.597333333,46 1.33333333,46 L34.6666667,46 C35.4026667,46 36,45.3952353 36,44.6470588 C36,43.8988824 35.4026667,43.2941176 34.6666667,43.2941176 Z"></path>
                                            </g>
                                            <polygon id="Shape" fill="#D5D0BB" fill-rule="nonzero" points="41 0 41 18 60 18"></polygon>
                                        </g>
                                        <g transform="translate(39.000000, 42.000000)">
                                            <circle id="Oval" fill="#76C9B0" fill-rule="nonzero" cx="11" cy="11" r="11"></circle>
                                            <path d="M17,10 L12,10 L12,5 C12,4.448 11.553,4 11,4 C10.447,4 10,4.448 10,5 L10,11 C10,11.552 10.447,12 11,12 L17,12 C17.553,12 18,11.552 18,11 C18,10.448 17.553,10 17,10 Z" id="Shape" fill="#FFFFFF" fill-rule="nonzero"></path>
                                        </g>
                                    </g>
                                </g>
                            </g>
                        </g>
                    </g>
                </g>
            </g>
        </g>
    </g>
</svg>