<svg xmlns="http://www.w3.org/2000/svg" width="17" height="18.744" viewBox="0 0 17 18.744"><defs><style>.a{fill:#a4abb3;}</style></defs><path class="a" d="M13,21.244a8.495,8.495,0,0,0,.654-16.965V3.808h1.09a.654.654,0,0,0,0-1.308H11.256a.654.654,0,0,0,0,1.308h1.09v.471A8.495,8.495,0,0,0,13,21.244ZM13,5.551a7.192,7.192,0,1,1-7.192,7.192A7.2,7.2,0,0,1,13,5.551Z" transform="translate(-4.5 -2.5)"/><path class="a" d="M23.154,20.167h3.487a.654.654,0,1,0,0-1.308H23.808V15.154a.654.654,0,1,0-1.308,0v4.359A.653.653,0,0,0,23.154,20.167Z" transform="translate(-14.654 -9.269)"/></svg>