<svg xmlns="http://www.w3.org/2000/svg" width="240" height="147.529" viewBox="0 0 126.325 74.049"><defs><style>.a{fill:#86eab8;}.b{fill:teal;}</style></defs><g transform="translate(2.168 2.174)"><path class="a" d="M284.7,142.849a2.174,2.174,0,0,1-.842-4.188l25.265-10.542L321.845,96.3a2.19,2.19,0,0,1,2.833-1.217,2.3,2.3,0,0,1,.766.482l17.992,17.992,16.43-17.923a2.182,2.182,0,0,1,3.208,2.948l-17.969,19.6a2.182,2.182,0,0,1-1.531.7,2.3,2.3,0,0,1-1.585-.643l-17.264-17.257-11.874,29.6a2.167,2.167,0,0,1-1.179,1.2l-26.138,10.887A2.121,2.121,0,0,1,284.7,142.849Z" transform="translate(-282.501 -73.148)"/><path class="a" d="M404.179,82.274a2.174,2.174,0,0,1-.873-4.173l26.13-11.438a2.182,2.182,0,0,1,1.753,4L405.06,82.09A2.152,2.152,0,0,1,404.179,82.274Z" transform="translate(-310.509 -66.479)"/></g><circle class="b" cx="4.356" cy="4.356" r="4.356" transform="translate(117.612)"/><circle class="b" cx="4.356" cy="4.356" r="4.356" transform="translate(58.806 41.381)"/><circle class="b" cx="4.356" cy="4.356" r="4.356" transform="translate(39.207 21.781)"/><circle class="b" cx="4.356" cy="4.356" r="4.356" transform="translate(26.138 54.45)"/><circle class="b" cx="4.356" cy="4.356" r="4.356" transform="translate(0 65.337)"/><circle class="b" cx="4.356" cy="4.356" r="4.356" transform="translate(82.769 15.243)"/><g transform="translate(76.239 8.713)"><path class="b" d="M390.137,96.794a10.887,10.887,0,1,1,10.887-10.887h0A10.9,10.9,0,0,1,390.137,96.794Zm0-17.417a6.538,6.538,0,1,0,6.531,6.531,6.538,6.538,0,0,0-6.531-6.531Z" transform="translate(-379.25 -75.02)"/></g></svg>