<svg xmlns="http://www.w3.org/2000/svg" width="19.322" height="19.295" viewBox="0 0 19.322 19.295"><defs><style>.a{fill:#003d7a;}</style></defs><g transform="translate(0 -0.358)"><g transform="translate(0 12.143)"><path class="a" d="M17.813,312.642v5.246a.756.756,0,0,1-.755.755H2.264a.756.756,0,0,1-.755-.755v-5.246H0v5.246a2.267,2.267,0,0,0,2.264,2.264H17.058a2.267,2.267,0,0,0,2.264-2.264v-5.246Z" transform="translate(0 -312.642)"/></g><g transform="translate(4.971 0.358)"><path class="a" d="M136.406.358l-4.69,4.69,1.067,1.067,2.868-2.868V15.011h1.51V3.248l2.868,2.868L141.1,5.048Z" transform="translate(-131.716 -0.358)"/></g></g></svg>