<?xml version="1.0" encoding="UTF-8" standalone="no"?>
<svg
   xmlns:dc="http://purl.org/dc/elements/1.1/"
   xmlns:cc="http://creativecommons.org/ns#"
   xmlns:rdf="http://www.w3.org/1999/02/22-rdf-syntax-ns#"
   xmlns:svg="http://www.w3.org/2000/svg"
   xmlns="http://www.w3.org/2000/svg"
   xmlns:xlink="http://www.w3.org/1999/xlink"
   xmlns:sodipodi="http://sodipodi.sourceforge.net/DTD/sodipodi-0.dtd"
   xmlns:inkscape="http://www.inkscape.org/namespaces/inkscape"
   width="86px"
   height="86px"
   viewBox="0 0 86 86"
   version="1.1"
   id="svg62"
   sodipodi:docname="usermanagement.svg"
   inkscape:version="0.92.3 (5aff6ba, 2018-11-25)">
  <metadata
     id="metadata66">
    <rdf:RDF>
      <cc:Work
         rdf:about="">
        <dc:format>image/svg+xml</dc:format>
        <dc:type
           rdf:resource="http://purl.org/dc/dcmitype/StillImage" />
        <dc:title>group of people</dc:title>
      </cc:Work>
    </rdf:RDF>
  </metadata>
  <sodipodi:namedview
     pagecolor="#ffffff"
     bordercolor="#666666"
     borderopacity="1"
     objecttolerance="10"
     gridtolerance="10"
     guidetolerance="10"
     inkscape:pageopacity="0"
     inkscape:pageshadow="2"
     inkscape:window-width="1853"
     inkscape:window-height="1025"
     id="namedview64"
     showgrid="false"
     inkscape:zoom="3.8808651"
     inkscape:cx="28.804839"
     inkscape:cy="51.038616"
     inkscape:window-x="67"
     inkscape:window-y="27"
     inkscape:window-maximized="1"
     inkscape:current-layer="svg62" />
  <!-- Generator: Sketch 46.2 (44496) - http://www.bohemiancoding.com/sketch -->
  <title
     id="title2">group of people</title>
  <desc
     id="desc4">Created with Sketch.</desc>
  <defs
     id="defs25">
    <filter
       x="-9.0%"
       y="-6.4%"
       width="117.9%"
       height="117.9%"
       filterUnits="objectBoundingBox"
       id="filter-1">
      <feOffset
         dx="0"
         dy="2"
         in="SourceAlpha"
         result="shadowOffsetOuter1"
         id="feOffset6" />
      <feGaussianBlur
         stdDeviation="2"
         in="shadowOffsetOuter1"
         result="shadowBlurOuter1"
         id="feGaussianBlur8" />
      <feColorMatrix
         values="0 0 0 0 0   0 0 0 0 0   0 0 0 0 0  0 0 0 0.5 0"
         type="matrix"
         in="shadowBlurOuter1"
         result="shadowMatrixOuter1"
         id="feColorMatrix10" />
      <feMerge
         id="feMerge16">
        <feMergeNode
           in="shadowMatrixOuter1"
           id="feMergeNode12" />
        <feMergeNode
           in="SourceGraphic"
           id="feMergeNode14" />
      </feMerge>
    </filter>
    <linearGradient
       x1="38.940808"
       y1="0.70026072"
       x2="38.940808"
       y2="77.178995"
       id="linearGradient-2"
       gradientTransform="scale(0.99940988,1.0005905)"
       gradientUnits="userSpaceOnUse">
      <stop
         stop-color="#FFFFFF"
         offset="0%"
         id="stop19" />
      <stop
         stop-color="#ECECEC"
         offset="100%"
         id="stop21" />
    </linearGradient>
    <path
       d="M38.9178286,77.2245669 C60.0243854,77.2245669 77.1346297,60.09411 77.1346297,38.9626205 C77.1346297,17.8311311 60.0243854,0.700674202 38.9178286,0.700674202 C17.8112721,0.700674202 0.701027383,17.8311311 0.701027383,38.9626205 C0.701027383,60.09411 17.8112721,77.2245669 38.9178286,77.2245669 Z"
       id="path-3" />
    <filter
       x="-0.090000004"
       y="-0.064000003"
       width="1.179"
       height="1.179"
       filterUnits="objectBoundingBox"
       id="filter-1-3">
      <feOffset
         dx="0"
         dy="2"
         in="SourceAlpha"
         result="shadowOffsetOuter1"
         id="feOffset6-6" />
      <feGaussianBlur
         stdDeviation="2"
         in="shadowOffsetOuter1"
         result="shadowBlurOuter1"
         id="feGaussianBlur8-7" />
      <feColorMatrix
         values="0 0 0 0 0   0 0 0 0 0   0 0 0 0 0  0 0 0 0.5 0"
         type="matrix"
         in="shadowBlurOuter1"
         result="shadowMatrixOuter1"
         id="feColorMatrix10-5" />
      <feMerge
         id="feMerge16-3">
        <feMergeNode
           in="shadowMatrixOuter1"
           id="feMergeNode12-5" />
        <feMergeNode
           in="SourceGraphic"
           id="feMergeNode14-6" />
      </feMerge>
    </filter>
    <mask
       fill="white"
       id="mask-4-1">
      <use
         height="100%"
         width="100%"
         y="0"
         x="0"
         id="use27-2"
         xlink:href="#path-3" />
    </mask>
    <linearGradient
       inkscape:collect="always"
       xlink:href="#linearGradient-2"
       id="linearGradient1152"
       gradientUnits="userSpaceOnUse"
       gradientTransform="scale(0.99940988,1.0005905)"
       x1="38.940808"
       y1="0.70026072"
       x2="38.940808"
       y2="77.178995" />
  </defs>
  <g
     style="fill:none;fill-rule:evenodd;stroke:none;stroke-width:1"
     transform="translate(-1011,-240)"
     id="demo.lizard.net/management/alarms/-[1-level-in]">
    <g
       style="fill:none;fill-rule:evenodd;stroke:none;stroke-width:1"
       transform="translate(235.667,196.19949)"
       id="cards-7">
      <g
         transform="translate(678)"
         id="card-alarm-templates-0">
        <g
           style="filter:url(#filter-1-3)"
           transform="translate(102,47)"
           id="group-of-people-9">
          <g
             id="people-3">
            <g
               id="user-6">
              <mask
                 fill="white"
                 id="mask1058">
                <use
                   height="100%"
                   width="100%"
                   y="0"
                   x="0"
                   id="use1056"
                   xlink:href="#path-3" />
              </mask>
              <use
                 height="100%"
                 width="100%"
                 y="0"
                 x="0"
                 style="fill:url(#linearGradient1152);fill-rule:nonzero"
                 xlink:href="#path-3"
                 id="Mask-0" />
            </g>
          </g>
        </g>
      </g>
    </g>
  </g>
  <g
     transform="matrix(0.43744822,0,0,0.4191009,-0.2569061,-14.831321)"
     id="layer1"
     inkscape:label="Layer 1">
    <g
       style="fill:#009f86;fill-opacity:1"
       transform="matrix(1.5476174,0,0,1.5874131,37.780421,72.383227)"
       id="g4586">
      <g
         style="fill:#009f86;fill-opacity:1"
         id="g4530">
        <path
           style="fill:#009f86;fill-opacity:1"
           inkscape:connector-curvature="0"
           d="m 48.355,17.922 c 3.705,2.323 6.303,6.254 6.776,10.817 1.511,0.706 3.188,1.112 4.966,1.112 6.491,0 11.752,-5.261 11.752,-11.751 0,-6.491 -5.261,-11.752 -11.752,-11.752 -6.429,0.002 -11.644,5.169 -11.742,11.574 z m -7.699,24.062 c 6.491,0 11.752,-5.262 11.752,-11.752 0,-6.49 -5.262,-11.751 -11.752,-11.751 -6.49,0 -11.754,5.262 -11.754,11.752 0,6.49 5.264,11.751 11.754,11.751 z m 4.985,0.801 h -9.972 c -8.297,0 -15.047,6.751 -15.047,15.048 v 12.195 l 0.031,0.191 0.84,0.263 c 7.918,2.474 14.797,3.299 20.459,3.299 11.059,0 17.469,-3.153 17.864,-3.354 l 0.785,-0.397 h 0.084 V 57.833 C 60.688,49.536 53.938,42.785 45.641,42.785 Z M 65.084,30.653 h -9.895 c -0.107,3.959 -1.797,7.524 -4.47,10.088 7.375,2.193 12.771,9.032 12.771,17.11 v 3.758 c 9.77,-0.358 15.4,-3.127 15.771,-3.313 l 0.785,-0.398 H 80.13 V 45.699 c 0,-8.296 -6.75,-15.046 -15.046,-15.046 z m -45.049,-0.8 c 2.299,0 4.438,-0.671 6.25,-1.814 0.576,-3.757 2.59,-7.04 5.467,-9.276 0.012,-0.22 0.033,-0.438 0.033,-0.66 0,-6.491 -5.262,-11.752 -11.75,-11.752 -6.492,0 -11.752,5.261 -11.752,11.752 0,6.488 5.26,11.75 11.752,11.75 z M 30.589,40.741 C 27.929,38.19 26.245,34.644 26.122,30.709 25.755,30.682 25.392,30.653 25.018,30.653 H 15.047 C 6.75,30.653 0,37.403 0,45.699 v 12.197 l 0.031,0.188 0.84,0.265 c 6.352,1.983 12.021,2.897 16.945,3.185 v -3.683 c 0.002,-8.078 5.396,-14.915 12.773,-17.11 z"
           id="path4528" />
      </g>
      <g
         style="fill:#009f86;fill-opacity:1"
         id="g4532" />
      <g
         style="fill:#009f86;fill-opacity:1"
         id="g4534" />
      <g
         style="fill:#009f86;fill-opacity:1"
         id="g4536" />
      <g
         style="fill:#009f86;fill-opacity:1"
         id="g4538" />
      <g
         style="fill:#009f86;fill-opacity:1"
         id="g4540" />
      <g
         style="fill:#009f86;fill-opacity:1"
         id="g4542" />
      <g
         style="fill:#009f86;fill-opacity:1"
         id="g4544" />
      <g
         style="fill:#009f86;fill-opacity:1"
         id="g4546" />
      <g
         style="fill:#009f86;fill-opacity:1"
         id="g4548" />
      <g
         style="fill:#009f86;fill-opacity:1"
         id="g4550" />
      <g
         style="fill:#009f86;fill-opacity:1"
         id="g4552" />
      <g
         style="fill:#009f86;fill-opacity:1"
         id="g4554" />
      <g
         style="fill:#009f86;fill-opacity:1"
         id="g4556" />
      <g
         style="fill:#009f86;fill-opacity:1"
         id="g4558" />
      <g
         style="fill:#009f86;fill-opacity:1"
         id="g4560" />
    </g>
  </g>
</svg>
