<svg xmlns="http://www.w3.org/2000/svg" width="21.731" height="19.866" viewBox="0 0 21.731 19.866"><defs><style>.a{fill:#b40202;}</style></defs><path class="a" d="M219.342,333.382a1.117,1.117,0,0,0,0,2.234,1.117,1.117,0,0,0,0-2.234Z" transform="translate(-208.476 -319.422)"/><path class="a" d="M21.2,38.8a3.814,3.814,0,0,0,.009-3.86l-7-12.115a3.854,3.854,0,0,0-6.692,0l-7,12.128a3.869,3.869,0,0,0,3.35,5.8H17.843A3.847,3.847,0,0,0,21.2,38.8Zm-1.519-.876a2.111,2.111,0,0,1-1.845,1.068H3.865a2.082,2.082,0,0,1-1.823-1.045,2.114,2.114,0,0,1,0-2.131l7-12.124a2.1,2.1,0,0,1,3.654,0l7,12.124A2.086,2.086,0,0,1,19.683,37.924Z" transform="translate(0 -20.882)"/><path class="a" d="M218.587,157.208a1.215,1.215,0,0,0-.862,1.22c.027.353.049.71.076,1.063.076,1.345.152,2.662.228,4.007a.818.818,0,0,0,.835.786.835.835,0,0,0,.835-.813c0-.277,0-.532.027-.813.049-.862.1-1.724.152-2.587.027-.558.076-1.117.1-1.675a1.379,1.379,0,0,0-.1-.558A1.12,1.12,0,0,0,218.587,157.208Z" transform="translate(-207.999 -151.088)"/></svg>