<svg xmlns="http://www.w3.org/2000/svg" width="59" height="59" viewBox="0 0 59 59"><defs><style>.a{fill:#2fcbab;}.b{fill:#009f86;}</style></defs><g transform="translate(-595 -274)"><circle class="a" cx="7" cy="7" r="7" transform="translate(619 294)"/><circle class="a" cx="5" cy="5" r="5" transform="translate(596 319)"/><circle class="a" cx="5" cy="5" r="5" transform="translate(621 322)"/><circle class="a" cx="5" cy="5" r="5" transform="translate(643 276)"/><circle class="a" cx="3" cy="3" r="3" transform="translate(640 315)"/><circle class="a" cx="3" cy="3" r="3" transform="translate(606 281)"/><path class="b" d="M52.563,0a6.436,6.436,0,0,0-5.658,9.5L36.362,20.048a8.525,8.525,0,0,0-10.507,0L17.628,11.82a4.234,4.234,0,0,0,.608-2.166,4.291,4.291,0,1,0-4.291,4.291,4.234,4.234,0,0,0,2.166-.608l8.227,8.227a8.527,8.527,0,0,0,0,10.507L10.753,45.657a6.371,6.371,0,1,0,1.341,1.693L25.856,33.588a8.531,8.531,0,0,0,4.181,1.737v10.9a6.436,6.436,0,1,0,2.145,0v-10.9a8.531,8.531,0,0,0,4.181-1.737l8.227,8.227a4.232,4.232,0,0,0-.609,2.167,4.291,4.291,0,1,0,4.291-4.291,4.234,4.234,0,0,0-2.166.608L37.88,32.072a8.527,8.527,0,0,0,0-10.507L48.248,11.2A6.432,6.432,0,1,0,52.563,0ZM11.8,9.655A2.145,2.145,0,1,1,13.945,11.8,2.148,2.148,0,0,1,11.8,9.655ZM6.436,54.709a4.291,4.291,0,1,1,4.291-4.291A4.3,4.3,0,0,1,6.436,54.709ZM35.4,52.563a4.291,4.291,0,1,1-4.291-4.291A4.3,4.3,0,0,1,35.4,52.563ZM31.109,33.254a6.436,6.436,0,1,1,6.436-6.436A6.443,6.443,0,0,1,31.109,33.254ZM50.418,43.982a2.145,2.145,0,1,1-2.145-2.145A2.148,2.148,0,0,1,50.418,43.982Zm2.145-33.254a4.291,4.291,0,1,1,4.291-4.291A4.3,4.3,0,0,1,52.563,10.727Z" transform="translate(595 274)"/></g></svg>