<svg xmlns="http://www.w3.org/2000/svg" xmlns:xlink="http://www.w3.org/1999/xlink" width="229" height="229" viewBox="0 0 229 229"><defs><style>.a{fill:#f2f2f2;}.b{fill:#2c3e50;font-size:17px;font-family:Montserrat-Regular, Montserrat;}.c{fill:#2fcbab;}.d{fill:#009f86;}.e{filter:url(#a);}</style><filter id="a" x="0" y="0" width="229" height="229" filterUnits="userSpaceOnUse"><feOffset dx="3" dy="3" input="SourceAlpha"/><feGaussianBlur stdDeviation="3" result="b"/><feFlood flood-opacity="0.161"/><feComposite operator="in" in2="b"/><feComposite in="SourceGraphic"/></filter></defs><g transform="translate(6 6)"><g class="e" transform="matrix(1, 0, 0, 1, -6, -6)"><rect class="a" width="211" height="211" rx="10" transform="translate(6 6)"/></g><text class="b" transform="translate(48 163)"><tspan x="0" y="0">WMS LAYERS</tspan></text><g transform="translate(-519 -204)"><circle class="c" cx="7" cy="7" r="7" transform="translate(619 294)"/><circle class="c" cx="5" cy="5" r="5" transform="translate(596 319)"/><circle class="c" cx="5" cy="5" r="5" transform="translate(621 322)"/><circle class="c" cx="5" cy="5" r="5" transform="translate(643 276)"/><circle class="c" cx="3" cy="3" r="3" transform="translate(640 315)"/><circle class="c" cx="3" cy="3" r="3" transform="translate(606 281)"/><path class="d" d="M52.563,0a6.436,6.436,0,0,0-5.658,9.5L36.362,20.048a8.525,8.525,0,0,0-10.507,0L17.628,11.82a4.234,4.234,0,0,0,.608-2.166,4.291,4.291,0,1,0-4.291,4.291,4.234,4.234,0,0,0,2.166-.608l8.227,8.227a8.527,8.527,0,0,0,0,10.507L10.753,45.657a6.371,6.371,0,1,0,1.341,1.693L25.856,33.588a8.531,8.531,0,0,0,4.181,1.737v10.9a6.436,6.436,0,1,0,2.145,0v-10.9a8.531,8.531,0,0,0,4.181-1.737l8.227,8.227a4.232,4.232,0,0,0-.609,2.167,4.291,4.291,0,1,0,4.291-4.291,4.234,4.234,0,0,0-2.166.608L37.88,32.072a8.527,8.527,0,0,0,0-10.507L48.248,11.2A6.432,6.432,0,1,0,52.563,0ZM11.8,9.655A2.145,2.145,0,1,1,13.945,11.8,2.148,2.148,0,0,1,11.8,9.655ZM6.436,54.709a4.291,4.291,0,1,1,4.291-4.291A4.3,4.3,0,0,1,6.436,54.709ZM35.4,52.563a4.291,4.291,0,1,1-4.291-4.291A4.3,4.3,0,0,1,35.4,52.563ZM31.109,33.254a6.436,6.436,0,1,1,6.436-6.436A6.443,6.443,0,0,1,31.109,33.254ZM50.418,43.982a2.145,2.145,0,1,1-2.145-2.145A2.148,2.148,0,0,1,50.418,43.982Zm2.145-33.254a4.291,4.291,0,1,1,4.291-4.291A4.3,4.3,0,0,1,52.563,10.727Z" transform="translate(595 274)"/></g></g></svg>