<svg xmlns="http://www.w3.org/2000/svg" width="68.028" height="68.028" viewBox="0 0 68.028 68.028"><defs><style>.a{fill:#fff;}</style></defs><path class="a" d="M58.065,9.962a34.014,34.014,0,1,0-48.1,48.1,34.014,34.014,0,1,0,48.1-48.1Zm2.862,41.165H55.572a43.475,43.475,0,0,0,3.353-16.048h6.953A31.626,31.626,0,0,1,60.927,51.127ZM2.15,35.079H9.1a43.475,43.475,0,0,0,3.353,16.048H7.1A31.626,31.626,0,0,1,2.15,35.079ZM7.1,16.9h5.355A43.475,43.475,0,0,0,9.1,32.949H2.15A31.626,31.626,0,0,1,7.1,16.9ZM45.3,32.949A93.9,93.9,0,0,0,43.84,16.9h9.4a41.13,41.13,0,0,1,3.556,16.048Zm-20.439,0A90.331,90.331,0,0,1,26.36,16.9H41.668a90.33,90.33,0,0,1,1.5,16.048Zm18.309,2.13a90.33,90.33,0,0,1-1.5,16.048H26.36a90.331,90.331,0,0,1-1.5-16.048Zm.239-20.309c-.34-1.542-.722-3-1.146-4.37A24.69,24.69,0,0,0,38.7,2.809c5.463,1.6,10.212,5.951,13.475,11.961Zm-2.189,0H26.809c1.806-7.886,4.595-12.64,7.2-12.64S39.413,6.884,41.219,14.77ZM25.766,10.4c-.424,1.366-.806,2.828-1.146,4.37H15.852C19.115,8.76,23.864,4.413,29.327,2.809A24.689,24.689,0,0,0,25.766,10.4Zm-1.578,6.5a93.9,93.9,0,0,0-1.459,16.048h-11.5A41.13,41.13,0,0,1,14.789,16.9ZM11.234,35.079h11.5a93.9,93.9,0,0,0,1.459,16.048h-9.4A41.13,41.13,0,0,1,11.234,35.079ZM24.62,53.258c.34,1.542.722,3,1.146,4.37a24.69,24.69,0,0,0,3.561,7.591c-5.463-1.6-10.212-5.951-13.475-11.961Zm2.189,0h14.41c-1.806,7.886-4.595,12.64-7.2,12.64S28.615,61.144,26.809,53.258Zm15.453,4.37c.424-1.366.806-2.828,1.146-4.37h8.768c-3.263,6.01-8.012,10.358-13.475,11.961A24.689,24.689,0,0,0,42.262,57.628Zm1.578-6.5A93.905,93.905,0,0,0,45.3,35.079h11.5a41.13,41.13,0,0,1-3.556,16.048ZM58.925,32.949A43.475,43.475,0,0,0,55.572,16.9h5.355a31.627,31.627,0,0,1,4.951,16.048Zm-2.366-21.48a32.359,32.359,0,0,1,2.88,3.3H54.583a34.226,34.226,0,0,0-2.835-4.679,28.083,28.083,0,0,0-4.939-5.3A31.867,31.867,0,0,1,56.559,11.469Zm-45.09,0a31.862,31.862,0,0,1,9.751-6.676,28.087,28.087,0,0,0-4.939,5.3,34.218,34.218,0,0,0-2.835,4.679H8.588A32.373,32.373,0,0,1,11.469,11.469Zm0,45.09a32.373,32.373,0,0,1-2.88-3.3h4.857a34.226,34.226,0,0,0,2.835,4.679,28.083,28.083,0,0,0,4.939,5.3A31.866,31.866,0,0,1,11.469,56.559Zm45.09,0a31.862,31.862,0,0,1-9.751,6.676,28.087,28.087,0,0,0,4.939-5.3,34.217,34.217,0,0,0,2.835-4.679H59.44A32.391,32.391,0,0,1,56.559,56.559Z"/></svg>